<svg width="22" height="22" viewBox="0 0 22 22" fill="none" xmlns="http://www.w3.org/2000/svg">
<rect x="0.5" y="0.5" width="21" height="21" rx="5.5" stroke="#E0E0E0"/>
<path d="M4.68291 15.8208C4.5733 16.25 4.22407 16.6146 3.78109 16.6146C3.33811 16.6146 2.97218 16.253 3.04568 15.8162C3.21058 14.836 3.67646 13.9237 4.38855 13.2116C5.29107 12.3091 6.51515 11.8021 7.7915 11.8021C9.06786 11.8021 10.2919 12.3091 11.1945 13.2116C11.9065 13.9237 12.3724 14.836 12.5373 15.8162C12.6108 16.253 12.2449 16.6146 11.8019 16.6146C11.3589 16.6146 11.0097 16.25 10.9001 15.8208C10.7588 15.2673 10.4709 14.7567 10.0601 14.3459C9.45846 13.7443 8.64241 13.4062 7.7915 13.4062C6.9406 13.4062 6.12455 13.7443 5.52287 14.3459C5.11212 14.7567 4.82425 15.2673 4.68291 15.8208ZM16.6144 13.4062C16.6144 13.8492 16.2553 14.2083 15.8123 14.2083C15.3694 14.2083 15.0103 13.8492 15.0103 13.4062V11.8021H13.4061C12.9631 11.8021 12.604 11.443 12.604 11C12.604 10.557 12.9631 10.1979 13.4061 10.1979H15.0103V8.59373C15.0103 8.15075 15.3694 7.79165 15.8123 7.79165C16.2553 7.79165 16.6144 8.15075 16.6144 8.59373V10.1979H18.2186C18.6616 10.1979 19.0207 10.557 19.0207 11C19.0207 11.443 18.6616 11.8021 18.2186 11.8021H16.6144V13.4062ZM7.7915 11C6.9406 11 6.12455 10.662 5.52287 10.0603C4.92119 9.4586 4.58317 8.64255 4.58317 7.79165C4.58317 6.94074 4.92119 6.12469 5.52287 5.52301C6.12455 4.92133 6.9406 4.58331 7.7915 4.58331C8.64241 4.58331 9.45846 4.92133 10.0601 5.52301C10.6618 6.12469 10.9998 6.94074 10.9998 7.79165C10.9998 8.64255 10.6618 9.4586 10.0601 10.0603C9.45846 10.662 8.64241 11 7.7915 11ZM7.7915 6.18748C7.47737 6.1878 7.17025 6.28034 6.90823 6.45362C6.64622 6.6269 6.44085 6.8733 6.3176 7.16224C6.19434 7.45118 6.15864 7.76995 6.21491 8.079C6.27118 8.38805 6.41695 8.67378 6.63413 8.90073C6.85132 9.12769 7.13035 9.28589 7.43663 9.3557C7.74291 9.42551 8.06294 9.40386 8.35702 9.29344C8.6511 9.18301 8.9063 8.98868 9.09093 8.73454C9.27557 8.4804 9.38154 8.17765 9.39567 7.86383V8.18467V7.79165C9.39567 7.36619 9.22666 6.95817 8.92582 6.65733C8.62498 6.35649 8.21696 6.18748 7.7915 6.18748Z" fill="#BDBDBD"/>
</svg>
