<svg width="22" height="22" viewBox="0 0 22 22" fill="none" xmlns="http://www.w3.org/2000/svg">
<path d="M2.75 5.72917C2.75 4.93904 3.06388 4.18128 3.62258 3.62258C4.18128 3.06388 4.93904 2.75 5.72917 2.75H16.2708C17.061 2.75 17.8187 3.06388 18.3774 3.62258C18.9361 4.18128 19.25 4.93904 19.25 5.72917V16.2708C19.25 17.061 18.9361 17.8187 18.3774 18.3774C17.8187 18.9361 17.061 19.25 16.2708 19.25H5.72917C4.93904 19.25 4.18128 18.9361 3.62258 18.3774C3.06388 17.8187 2.75 17.061 2.75 16.2708V5.72917ZM11.6875 7.10417C11.6875 6.92183 11.6151 6.74696 11.4861 6.61803C11.3572 6.4891 11.1823 6.41667 11 6.41667C10.8177 6.41667 10.6428 6.4891 10.5139 6.61803C10.3849 6.74696 10.3125 6.92183 10.3125 7.10417V10.3125H7.10417C6.92183 10.3125 6.74696 10.3849 6.61803 10.5139C6.4891 10.6428 6.41667 10.8177 6.41667 11C6.41667 11.1823 6.4891 11.3572 6.61803 11.4861C6.74696 11.6151 6.92183 11.6875 7.10417 11.6875H10.3125V14.8958C10.3125 15.0782 10.3849 15.253 10.5139 15.382C10.6428 15.5109 10.8177 15.5833 11 15.5833C11.1823 15.5833 11.3572 15.5109 11.4861 15.382C11.6151 15.253 11.6875 15.0782 11.6875 14.8958V11.6875H14.8958C15.0782 11.6875 15.253 11.6151 15.382 11.4861C15.5109 11.3572 15.5833 11.1823 15.5833 11C15.5833 10.8177 15.5109 10.6428 15.382 10.5139C15.253 10.3849 15.0782 10.3125 14.8958 10.3125H11.6875V7.10417Z" fill="#AAC938"/>
</svg>
