<svg width="34" height="33" viewBox="0 0 34 33" fill="none" xmlns="http://www.w3.org/2000/svg">
<circle cx="17" cy="16.5" r="15.5" fill="white" stroke="#AAC938" stroke-width="2"/>
<path d="M20.0938 16.5C20.0938 17.3205 19.7678 18.1074 19.1876 18.6876C18.6074 19.2678 17.8205 19.5938 17 19.5938C16.1795 19.5938 15.3926 19.2678 14.8124 18.6876C14.2322 18.1074 13.9062 17.3205 13.9062 16.5C13.9062 15.6795 14.2322 14.8926 14.8124 14.3124C15.3926 13.7322 16.1795 13.4062 17 13.4062C17.8205 13.4062 18.6074 13.7322 19.1876 14.3124C19.7678 14.8926 20.0938 15.6795 20.0938 16.5ZM19.0625 16.5C19.0625 15.953 18.8452 15.4284 18.4584 15.0416C18.0716 14.6548 17.547 14.4375 17 14.4375C16.453 14.4375 15.9284 14.6548 15.5416 15.0416C15.1548 15.4284 14.9375 15.953 14.9375 16.5C14.9375 17.047 15.1548 17.5716 15.5416 17.9584C15.9284 18.3452 16.453 18.5625 17 18.5625C17.547 18.5625 18.0716 18.3452 18.4584 17.9584C18.8452 17.5716 19.0625 17.047 19.0625 16.5ZM15.5748 10.3125C15.2874 10.3125 15.0056 10.3926 14.7612 10.5438C14.5168 10.695 14.3193 10.9113 14.1909 11.1684L13.5876 12.375H12.875C12.328 12.375 11.8034 12.5923 11.4166 12.9791C11.0298 13.3659 10.8125 13.8905 10.8125 14.4375V19.5938C10.8125 20.1408 11.0298 20.6654 11.4166 21.0522C11.8034 21.439 12.328 21.6562 12.875 21.6562H21.125C21.672 21.6562 22.1966 21.439 22.5834 21.0522C22.9702 20.6654 23.1875 20.1408 23.1875 19.5938V14.4375C23.1875 13.8905 22.9702 13.3659 22.5834 12.9791C22.1966 12.5923 21.672 12.375 21.125 12.375H20.4124L19.8091 11.1684C19.6807 10.9113 19.4832 10.695 19.2388 10.5438C18.9944 10.3926 18.7126 10.3125 18.4252 10.3125H15.5748ZM15.1138 11.6284C15.1567 11.5428 15.2225 11.4709 15.3039 11.4206C15.3853 11.3704 15.4791 11.3438 15.5748 11.3438H18.4252C18.5209 11.3438 18.6147 11.3704 18.6961 11.4206C18.7775 11.4709 18.8433 11.5428 18.8862 11.6284L19.6328 13.1216C19.6756 13.2072 19.7415 13.2791 19.8229 13.3294C19.9043 13.3796 19.9981 13.4062 20.0938 13.4062H21.125C21.3985 13.4062 21.6608 13.5149 21.8542 13.7083C22.0476 13.9017 22.1562 14.164 22.1562 14.4375V19.5938C22.1562 19.8673 22.0476 20.1296 21.8542 20.323C21.6608 20.5164 21.3985 20.625 21.125 20.625H12.875C12.6015 20.625 12.3392 20.5164 12.1458 20.323C11.9524 20.1296 11.8438 19.8673 11.8438 19.5938V14.4375C11.8438 14.164 11.9524 13.9017 12.1458 13.7083C12.3392 13.5149 12.6015 13.4062 12.875 13.4062H13.9062C14.0019 13.4062 14.0957 13.3796 14.1771 13.3294C14.2585 13.2791 14.3244 13.2072 14.3672 13.1216L15.1138 11.6284Z" fill="#4F4F4F"/>
</svg>
