<svg width="24" height="24" viewBox="0 0 24 24" fill="none" xmlns="http://www.w3.org/2000/svg">
<rect x="0.5" y="0.5" width="23" height="23" rx="6.5" stroke="white"/>
<path d="M16.0833 13.1666H7.91667C7.27233 13.1666 6.75 13.689 6.75 14.3333V16.0833C6.75 16.7276 7.27233 17.25 7.91667 17.25H16.0833C16.7277 17.25 17.25 16.7276 17.25 16.0833V14.3333C17.25 13.689 16.7277 13.1666 16.0833 13.1666Z" stroke="white"/>
<path d="M10.8333 7.04163H7.91667C7.60725 7.04163 7.3105 7.16454 7.09171 7.38333C6.87292 7.60213 6.75 7.89887 6.75 8.20829V9.95829C6.75 10.2677 6.87292 10.5645 7.09171 10.7833C7.3105 11.002 7.60725 11.125 7.91667 11.125H10.8333" stroke="white" stroke-linecap="round"/>
<path d="M14.9163 11.4167C16.205 11.4167 17.2497 10.372 17.2497 9.08333C17.2497 7.79467 16.205 6.75 14.9163 6.75C13.6277 6.75 12.583 7.79467 12.583 9.08333C12.583 10.372 13.6277 11.4167 14.9163 11.4167Z" stroke="white"/>
<path d="M15.292 9.08337C15.292 9.29048 15.1241 9.45837 14.917 9.45837C14.7099 9.45837 14.542 9.29048 14.542 9.08337C14.542 8.87627 14.7099 8.70837 14.917 8.70837C15.1241 8.70837 15.292 8.87627 15.292 9.08337Z" fill="white" stroke="white"/>
</svg>
