<svg width="24" height="24" viewBox="0 0 24 24" fill="none" xmlns="http://www.w3.org/2000/svg">
<rect x="0.5" y="0.5" width="23" height="23" rx="6.5" stroke="white"/>
<g clip-path="url(#clip0)">
<mask id="path-2-inside-1" fill="white">
<path d="M7.59875 6.18125C7.6809 6.08521 7.78288 6.0081 7.89768 5.95523C8.01248 5.90236 8.13736 5.87499 8.26375 5.875H15.7362C15.8626 5.87499 15.9875 5.90236 16.1023 5.95523C16.2171 6.0081 16.3191 6.08521 16.4012 6.18125L18.6841 8.84475C18.888 9.0826 19 9.38551 19 9.69875V9.92188C19 10.355 18.8648 10.7773 18.6131 11.1297C18.3614 11.4822 18.0059 11.7472 17.5962 11.8878C17.1865 12.0283 16.7432 12.0373 16.3282 11.9136C15.9131 11.7899 15.5471 11.5395 15.2812 11.1976C15.0871 11.4477 14.8384 11.65 14.554 11.7891C14.2696 11.9281 13.9572 12.0003 13.6406 12C13.3241 12.0004 13.0116 11.9282 12.7272 11.7891C12.4428 11.6501 12.1941 11.4477 12 11.1976C11.8059 11.4477 11.5572 11.6501 11.2728 11.7891C10.9884 11.9282 10.6759 12.0004 10.3594 12C10.0428 12.0004 9.73036 11.9282 9.44598 11.7891C9.1616 11.6501 8.91283 11.4477 8.71875 11.1976C8.45292 11.5395 8.0869 11.7899 7.67184 11.9136C7.25679 12.0373 6.81345 12.0283 6.40378 11.8878C5.99412 11.7472 5.63859 11.4822 5.38691 11.1297C5.13522 10.7773 4.99995 10.355 5 9.92188V9.69875C5.00001 9.38551 5.11205 9.0826 5.31587 8.84475L7.59962 6.18037L7.59875 6.18125ZM9.15625 9.92188C9.15625 10.241 9.28301 10.547 9.50864 10.7726C9.73427 10.9982 10.0403 11.125 10.3594 11.125C10.6785 11.125 10.9845 10.9982 11.2101 10.7726C11.4357 10.547 11.5625 10.241 11.5625 9.92188C11.5625 9.80584 11.6086 9.69456 11.6906 9.61252C11.7727 9.53047 11.884 9.48438 12 9.48438C12.116 9.48438 12.2273 9.53047 12.3094 9.61252C12.3914 9.69456 12.4375 9.80584 12.4375 9.92188C12.4375 10.241 12.5643 10.547 12.7899 10.7726C13.0155 10.9982 13.3215 11.125 13.6406 11.125C13.9597 11.125 14.2657 10.9982 14.4914 10.7726C14.717 10.547 14.8438 10.241 14.8438 9.92188C14.8438 9.80584 14.8898 9.69456 14.9719 9.61252C15.0539 9.53047 15.1652 9.48438 15.2812 9.48438C15.3973 9.48438 15.5086 9.53047 15.5906 9.61252C15.6727 9.69456 15.7188 9.80584 15.7188 9.92188C15.7188 10.241 15.8455 10.547 16.0711 10.7726C16.2968 10.9982 16.6028 11.125 16.9219 11.125C17.241 11.125 17.547 10.9982 17.7726 10.7726C17.9982 10.547 18.125 10.241 18.125 9.92188V9.69875C18.125 9.59447 18.0878 9.49362 18.02 9.41438L15.7362 6.75H8.26375L5.98 9.41438C5.91223 9.49362 5.87499 9.59447 5.875 9.69875V9.92188C5.875 10.241 6.00176 10.547 6.22739 10.7726C6.45302 10.9982 6.75904 11.125 7.07812 11.125C7.39721 11.125 7.70323 10.9982 7.92886 10.7726C8.15449 10.547 8.28125 10.241 8.28125 9.92188C8.28125 9.80584 8.32734 9.69456 8.40939 9.61252C8.49144 9.53047 8.60272 9.48438 8.71875 9.48438C8.83478 9.48438 8.94606 9.53047 9.02811 9.61252C9.11016 9.69456 9.15625 9.80584 9.15625 9.92188ZM6.3125 12.4375C6.42853 12.4375 6.53981 12.4836 6.62186 12.5656C6.70391 12.6477 6.75 12.759 6.75 12.875V18.125H17.25V12.875C17.25 12.759 17.2961 12.6477 17.3781 12.5656C17.4602 12.4836 17.5715 12.4375 17.6875 12.4375C17.8035 12.4375 17.9148 12.4836 17.9969 12.5656C18.0789 12.6477 18.125 12.759 18.125 12.875V18.125H18.5625C18.6785 18.125 18.7898 18.1711 18.8719 18.2531C18.9539 18.3352 19 18.4465 19 18.5625C19 18.6785 18.9539 18.7898 18.8719 18.8719C18.7898 18.9539 18.6785 19 18.5625 19H5.4375C5.32147 19 5.21019 18.9539 5.12814 18.8719C5.04609 18.7898 5 18.6785 5 18.5625C5 18.4465 5.04609 18.3352 5.12814 18.2531C5.21019 18.1711 5.32147 18.125 5.4375 18.125H5.875V12.875C5.875 12.759 5.92109 12.6477 6.00314 12.5656C6.08519 12.4836 6.19647 12.4375 6.3125 12.4375ZM8.0625 12.875C8.17853 12.875 8.28981 12.9211 8.37186 13.0031C8.45391 13.0852 8.5 13.1965 8.5 13.3125V16.375H15.5V13.3125C15.5 13.1965 15.5461 13.0852 15.6281 13.0031C15.7102 12.9211 15.8215 12.875 15.9375 12.875C16.0535 12.875 16.1648 12.9211 16.2469 13.0031C16.3289 13.0852 16.375 13.1965 16.375 13.3125V16.375C16.375 16.6071 16.2828 16.8296 16.1187 16.9937C15.9546 17.1578 15.7321 17.25 15.5 17.25H8.5C8.26794 17.25 8.04538 17.1578 7.88128 16.9937C7.71719 16.8296 7.625 16.6071 7.625 16.375V13.3125C7.625 13.1965 7.67109 13.0852 7.75314 13.0031C7.83519 12.9211 7.94647 12.875 8.0625 12.875Z"/>
</mask>
<path d="M7.59875 6.18125C7.6809 6.08521 7.78288 6.0081 7.89768 5.95523C8.01248 5.90236 8.13736 5.87499 8.26375 5.875H15.7362C15.8626 5.87499 15.9875 5.90236 16.1023 5.95523C16.2171 6.0081 16.3191 6.08521 16.4012 6.18125L18.6841 8.84475C18.888 9.0826 19 9.38551 19 9.69875V9.92188C19 10.355 18.8648 10.7773 18.6131 11.1297C18.3614 11.4822 18.0059 11.7472 17.5962 11.8878C17.1865 12.0283 16.7432 12.0373 16.3282 11.9136C15.9131 11.7899 15.5471 11.5395 15.2812 11.1976C15.0871 11.4477 14.8384 11.65 14.554 11.7891C14.2696 11.9281 13.9572 12.0003 13.6406 12C13.3241 12.0004 13.0116 11.9282 12.7272 11.7891C12.4428 11.6501 12.1941 11.4477 12 11.1976C11.8059 11.4477 11.5572 11.6501 11.2728 11.7891C10.9884 11.9282 10.6759 12.0004 10.3594 12C10.0428 12.0004 9.73036 11.9282 9.44598 11.7891C9.1616 11.6501 8.91283 11.4477 8.71875 11.1976C8.45292 11.5395 8.0869 11.7899 7.67184 11.9136C7.25679 12.0373 6.81345 12.0283 6.40378 11.8878C5.99412 11.7472 5.63859 11.4822 5.38691 11.1297C5.13522 10.7773 4.99995 10.355 5 9.92188V9.69875C5.00001 9.38551 5.11205 9.0826 5.31587 8.84475L7.59962 6.18037L7.59875 6.18125ZM9.15625 9.92188C9.15625 10.241 9.28301 10.547 9.50864 10.7726C9.73427 10.9982 10.0403 11.125 10.3594 11.125C10.6785 11.125 10.9845 10.9982 11.2101 10.7726C11.4357 10.547 11.5625 10.241 11.5625 9.92188C11.5625 9.80584 11.6086 9.69456 11.6906 9.61252C11.7727 9.53047 11.884 9.48438 12 9.48438C12.116 9.48438 12.2273 9.53047 12.3094 9.61252C12.3914 9.69456 12.4375 9.80584 12.4375 9.92188C12.4375 10.241 12.5643 10.547 12.7899 10.7726C13.0155 10.9982 13.3215 11.125 13.6406 11.125C13.9597 11.125 14.2657 10.9982 14.4914 10.7726C14.717 10.547 14.8438 10.241 14.8438 9.92188C14.8438 9.80584 14.8898 9.69456 14.9719 9.61252C15.0539 9.53047 15.1652 9.48438 15.2812 9.48438C15.3973 9.48438 15.5086 9.53047 15.5906 9.61252C15.6727 9.69456 15.7188 9.80584 15.7188 9.92188C15.7188 10.241 15.8455 10.547 16.0711 10.7726C16.2968 10.9982 16.6028 11.125 16.9219 11.125C17.241 11.125 17.547 10.9982 17.7726 10.7726C17.9982 10.547 18.125 10.241 18.125 9.92188V9.69875C18.125 9.59447 18.0878 9.49362 18.02 9.41438L15.7362 6.75H8.26375L5.98 9.41438C5.91223 9.49362 5.87499 9.59447 5.875 9.69875V9.92188C5.875 10.241 6.00176 10.547 6.22739 10.7726C6.45302 10.9982 6.75904 11.125 7.07812 11.125C7.39721 11.125 7.70323 10.9982 7.92886 10.7726C8.15449 10.547 8.28125 10.241 8.28125 9.92188C8.28125 9.80584 8.32734 9.69456 8.40939 9.61252C8.49144 9.53047 8.60272 9.48438 8.71875 9.48438C8.83478 9.48438 8.94606 9.53047 9.02811 9.61252C9.11016 9.69456 9.15625 9.80584 9.15625 9.92188ZM6.3125 12.4375C6.42853 12.4375 6.53981 12.4836 6.62186 12.5656C6.70391 12.6477 6.75 12.759 6.75 12.875V18.125H17.25V12.875C17.25 12.759 17.2961 12.6477 17.3781 12.5656C17.4602 12.4836 17.5715 12.4375 17.6875 12.4375C17.8035 12.4375 17.9148 12.4836 17.9969 12.5656C18.0789 12.6477 18.125 12.759 18.125 12.875V18.125H18.5625C18.6785 18.125 18.7898 18.1711 18.8719 18.2531C18.9539 18.3352 19 18.4465 19 18.5625C19 18.6785 18.9539 18.7898 18.8719 18.8719C18.7898 18.9539 18.6785 19 18.5625 19H5.4375C5.32147 19 5.21019 18.9539 5.12814 18.8719C5.04609 18.7898 5 18.6785 5 18.5625C5 18.4465 5.04609 18.3352 5.12814 18.2531C5.21019 18.1711 5.32147 18.125 5.4375 18.125H5.875V12.875C5.875 12.759 5.92109 12.6477 6.00314 12.5656C6.08519 12.4836 6.19647 12.4375 6.3125 12.4375ZM8.0625 12.875C8.17853 12.875 8.28981 12.9211 8.37186 13.0031C8.45391 13.0852 8.5 13.1965 8.5 13.3125V16.375H15.5V13.3125C15.5 13.1965 15.5461 13.0852 15.6281 13.0031C15.7102 12.9211 15.8215 12.875 15.9375 12.875C16.0535 12.875 16.1648 12.9211 16.2469 13.0031C16.3289 13.0852 16.375 13.1965 16.375 13.3125V16.375C16.375 16.6071 16.2828 16.8296 16.1187 16.9937C15.9546 17.1578 15.7321 17.25 15.5 17.25H8.5C8.26794 17.25 8.04538 17.1578 7.88128 16.9937C7.71719 16.8296 7.625 16.6071 7.625 16.375V13.3125C7.625 13.1965 7.67109 13.0852 7.75314 13.0031C7.83519 12.9211 7.94647 12.875 8.0625 12.875Z" stroke="white" stroke-width="2" mask="url(#path-2-inside-1)"/>
</g>
<defs>
<clipPath id="clip0">
<rect width="14" height="14" fill="white" transform="translate(5 5)"/>
</clipPath>
</defs>
</svg>
