<svg width="24" height="24" viewBox="0 0 24 24" fill="none" xmlns="http://www.w3.org/2000/svg">
<rect x="0.5" y="0.5" width="23" height="23" rx="6.5" stroke="white"/>
<path d="M14.9375 9.07754C14.8107 9.20333 14.6393 9.2739 14.4607 9.2739C14.282 9.2739 14.1106 9.20333 13.9838 9.07754C13.9213 9.01564 13.8717 8.94197 13.8379 8.86079C13.8041 8.77962 13.7866 8.69255 13.7866 8.60461C13.7866 8.51666 13.8041 8.42959 13.8379 8.34842C13.8717 8.26724 13.9213 8.19358 13.9838 8.13167C14.1106 8.00589 14.282 7.93531 14.4607 7.93531C14.6393 7.93531 14.8107 8.00589 14.9375 8.13167C15.2 8.39329 15.2 8.81679 14.9375 9.07754ZM7.21915 13.015C7.0556 12.853 6.92578 12.6601 6.83719 12.4476C6.74859 12.2351 6.70297 12.0072 6.70297 11.7769C6.70297 11.5467 6.74859 11.3187 6.83719 11.1062C6.92578 10.8937 7.0556 10.7008 7.21915 10.5388L11.3842 6.40004C11.7136 6.07323 12.1583 5.88906 12.6223 5.88729L15.4783 5.87504C15.7105 5.87342 15.9408 5.91788 16.1557 6.00585C16.3706 6.09381 16.566 6.22354 16.7305 6.38751C16.8949 6.55149 17.0252 6.74646 17.1138 6.96113C17.2024 7.17581 17.2476 7.40593 17.2467 7.63817L17.2257 10.5895C17.2219 11.05 17.0363 11.4903 16.7094 11.8145L12.6057 15.892C12.2743 16.2202 11.8269 16.4043 11.3605 16.4043C10.8942 16.4043 10.4467 16.2202 10.1154 15.892L7.21915 13.015ZM7.84215 11.1574C7.76038 11.2384 7.69547 11.3349 7.65117 11.4411C7.60687 11.5474 7.58406 11.6614 7.58406 11.7765C7.58406 11.8916 7.60687 12.0056 7.65117 12.1118C7.69547 12.2181 7.76038 12.3145 7.84215 12.3955L10.7384 15.2743C11.0823 15.6155 11.6397 15.6155 11.9835 15.2743L16.0873 11.1959C16.2505 11.0337 16.3429 10.8135 16.3445 10.5834L16.3664 7.63204C16.367 7.51583 16.3445 7.40066 16.3002 7.29322C16.2559 7.18578 16.1907 7.0882 16.1084 7.00614C16.0261 6.92409 15.9284 6.8592 15.8208 6.81524C15.7132 6.77127 15.598 6.74911 15.4818 6.75004L12.6258 6.76229C12.3936 6.76306 12.1711 6.85516 12.0063 7.01867L7.84128 11.1574H7.84215ZM6.7484 13.5313C6.63086 13.8459 6.6063 14.1876 6.67767 14.5158C6.74904 14.8439 6.91332 15.1446 7.1509 15.3819L8.8694 17.1004C9.19441 17.4254 9.58025 17.6833 10.0049 17.8592C10.4296 18.0351 10.8847 18.1256 11.3443 18.1256C11.804 18.1256 12.2591 18.0351 12.6838 17.8592C13.1084 17.6833 13.4943 17.4254 13.8193 17.1004L16.866 14.0537C17.1122 13.8078 17.2507 13.4741 17.251 13.1262V12.4437L13.8193 15.8754C13.7589 15.9358 13.6968 15.9935 13.6338 16.0478L13.2007 16.4818C12.9569 16.7256 12.6675 16.919 12.349 17.0509C12.0305 17.1829 11.6891 17.2508 11.3443 17.2508C10.9996 17.2508 10.6582 17.1829 10.3397 17.0509C10.0212 16.919 9.73179 16.7256 9.48803 16.4818L9.0514 16.0452C8.98878 15.9907 8.92808 15.9341 8.8694 15.8754L7.1509 14.1569C6.9733 13.9798 6.83601 13.7664 6.7484 13.5313Z" fill="white"/>
</svg>
