<?xml version="1.0" encoding="iso-8859-1"?>
<!-- Generator: Adobe Illustrator 19.0.0, SVG Export Plug-In . SVG Version: 6.00 Build 0)  -->
<svg version="1.1" id="Capa_1" xmlns="http://www.w3.org/2000/svg" xmlns:xlink="http://www.w3.org/1999/xlink" x="0px" y="0px"
	 viewBox="0 0 512 512" style="enable-background:new 0 0 512 512;" xml:space="preserve">
<path style="fill:#F0EFEB;" d="M512,256c0,65.128-24.325,124.573-64.387,169.754c-7.983,9.017-16.593,17.46-25.767,25.266
	c-21.389,18.213-45.808,32.956-72.411,43.384c-10.553,4.148-21.441,7.607-32.632,10.313c-0.533,0.146-1.066,0.272-1.599,0.397
	C296.208,509.618,276.375,512,256,512C114.615,512,0,397.385,0,256S114.615,0,256,0c61.461,0,117.844,21.65,161.97,57.752
	c4.18,3.406,8.234,6.949,12.184,10.627C480.496,115.116,512,181.875,512,256z"/>
<path style="fill:#FCD645;" d="M259.972,302.991c0,0-2.979,26.52-16.037,70.069c-4.855,16.22-11.126,34.814-19.145,55.264
	l-67.825-45.977V277.888c16.901-82.39,14.989-136.458,14.989-136.458l63.761,36.781L259.972,302.991z"/>
<path style="fill:#F7C840;" d="M243.972,372.875l-0.037,0.184c-4.855,16.22-11.126,34.814-19.145,55.264l-67.825-45.977V277.887
	L243.972,372.875z"/>
<path style="fill:#12B65F;" d="M224.796,428.324C212.65,376.096,163.803,273.93,119.383,228.52
	c-0.801-0.819-1.899-1.266-3.045-1.266H11.422c-3.697,0-5.627,4.363-3.16,7.116c42.885,47.835,88.294,143.863,99.943,193.955
	h116.591V428.324z"/>
<path style="fill:#508BF4;" d="M455.983,348.86c-1.62,24.66-4.305,50.375-8.37,76.894c-7.983,9.017-16.593,17.46-25.767,25.266
	c-21.389,18.213-45.808,32.956-72.411,43.384c-10.553,4.148-21.441,7.607-32.632,10.313l14.43-150.068l11.348-118.032
	c-4.765-84.041-19.769-145.011-26.352-168.364c-1.484-5.277,2.466-10.501,7.941-10.501h96.716c3.668,0,6.886,2.393,7.91,5.904
	c0.397,1.348,0.857,2.926,1.358,4.723C439.442,101.345,465.22,208.196,455.983,348.86z"/>
<path style="fill:#497CE7;" d="M455.983,348.86c-1.62,24.66-4.305,50.375-8.37,76.894c-7.983,9.017-16.593,17.46-25.767,25.266
	c-21.389,18.213-45.808,32.956-72.411,43.384l-18.202-139.755l-9.08-69.768l20.428-48.264L455.983,348.86z"/>
<path style="fill:#D23737;" d="M421.846,451.02c-30.281,25.778-66.644,44.628-106.642,54.094
	c-14.743-179.9-143.245-363.687-143.245-363.687h114.28C286.239,141.427,390.238,290.179,421.846,451.02z"/>
<g>
</g>
<g>
</g>
<g>
</g>
<g>
</g>
<g>
</g>
<g>
</g>
<g>
</g>
<g>
</g>
<g>
</g>
<g>
</g>
<g>
</g>
<g>
</g>
<g>
</g>
<g>
</g>
<g>
</g>
</svg>
