<svg width="23" height="23" viewBox="0 0 23 23" fill="none" xmlns="http://www.w3.org/2000/svg">
<path d="M12.2426 22.0633C12.7138 22.4282 12.7469 22.4282 13.1876 22.0894C13.7572 21.6514 14.3233 21.2089 14.899 20.7778C14.9782 20.7177 15.1219 20.662 15.1986 20.6942C15.4973 20.817 15.7037 20.7308 15.8918 20.4895C16.437 19.791 16.9875 19.0969 17.5431 18.4063C17.6032 18.3314 17.7112 18.2347 17.7861 18.2434C18.1284 18.2826 18.2869 18.1049 18.4036 17.8193C18.8408 16.7454 19.285 15.6733 19.7361 14.6046C19.7988 14.4566 19.9286 14.3381 20.007 14.1953C20.1028 14.0211 20.2491 13.8339 20.2474 13.6536C20.2343 12.315 20.1916 10.9763 20.1542 9.63772C20.1446 9.30589 19.879 9.2336 19.6299 9.17002C19.3921 9.10906 19.204 9.19702 19.0934 9.42347C19.0507 9.51143 19.015 9.60375 18.9723 9.69258C18.516 10.6489 17.821 10.9014 16.903 10.3867C16.4597 10.1376 16.0443 10.1394 15.6062 10.3188C15.2517 10.4642 14.9086 10.6375 14.5576 10.7917C14.3512 10.8823 14.1421 10.979 13.9244 11.0295C13.8338 11.0504 13.6797 10.985 13.6196 10.9075C13.3897 10.614 13.1841 10.5661 12.8619 10.7708C12.5884 10.945 12.3175 11.1253 12.038 11.2899C11.5267 11.5912 11.0077 11.5851 10.499 11.2846C10.2116 11.1148 9.93466 10.9258 9.65074 10.749C9.3764 10.5783 9.10902 10.6114 8.96445 10.8753C8.85558 11.0739 8.72929 11.0904 8.55511 11.0155C8.12138 10.83 7.68592 10.648 7.25916 10.4477C6.67999 10.176 6.10953 10.034 5.5321 10.4503C5.46243 10.5008 5.37011 10.5208 5.2865 10.5487C4.66204 10.7612 4.16213 10.6044 3.79459 10.0601C3.66395 9.8659 3.5725 9.64555 3.46538 9.43566C3.36 9.22751 3.19626 9.12735 2.96198 9.15957C2.73554 9.19006 2.62145 9.3416 2.57267 9.54888C2.55438 9.62465 2.55525 9.70565 2.55351 9.78403C2.51868 11.0242 2.49168 12.2644 2.44552 13.5038C2.4342 13.8147 2.50735 14.056 2.75383 14.2571C2.85311 14.3381 2.92018 14.474 2.97156 14.5977C3.42706 15.6855 3.8782 16.7759 4.32499 17.8672C4.41992 18.0979 4.5645 18.2739 4.8249 18.2408C5.01041 18.2164 5.09054 18.3009 5.1846 18.4211C5.73154 19.1178 6.28633 19.8093 6.83066 20.5078C6.98743 20.709 7.186 20.8301 7.41593 20.7186C7.61363 20.6237 7.71988 20.6994 7.85488 20.8048C8.44537 21.2647 9.0376 21.721 9.63245 22.1748C9.92857 22.4004 10.1202 22.3821 10.3841 22.1234C10.4233 22.0851 10.4642 22.0494 10.4973 22.0198C10.5295 22.0346 10.5408 22.0363 10.5461 22.0433C10.6976 22.2244 10.8465 22.4073 10.9989 22.5867C11.2628 22.8977 11.5502 22.8959 11.8167 22.5806C11.9596 22.416 12.0928 22.2471 12.2426 22.0633ZM5.15412 2.30708C5.20028 1.98483 5.11231 1.64691 4.92158 1.34034C4.01232 -0.121952 2.29833 -0.455518 0.974513 0.680177C-0.263953 1.74271 -0.325789 3.80682 0.810778 5.13674C1.41956 5.84916 2.18337 6.34037 3.04472 6.68438C4.94248 7.44035 6.88727 7.45516 8.84077 6.97179C9.94947 6.69745 10.9876 6.28027 11.3673 4.91726C11.5468 5.77426 12.0423 6.26721 12.7199 6.552C15.101 7.55357 17.5022 7.5649 19.8912 6.5851C20.8361 6.19753 21.6426 5.60181 22.1991 4.7213C23.037 3.39487 22.8158 1.59466 21.7097 0.649694C20.3153 -0.541741 18.1127 0.0504931 17.6145 1.75665C17.5588 1.94651 17.5623 2.15379 17.5379 2.35324C17.5658 2.35846 17.5936 2.36282 17.6215 2.36804C17.7469 2.23131 17.8584 2.07541 18.0021 1.96045C18.3827 1.65475 18.7433 1.2968 19.1735 1.08429C20.1559 0.59918 21.2951 1.09126 21.6696 2.09805C22.0502 3.1214 21.4963 4.23184 20.4146 4.50618C19.366 4.77182 18.293 4.71259 17.2557 4.45393C16.1618 4.18132 15.0923 3.80857 14.0141 3.47064C13.5125 3.313 13.0091 3.18498 12.4787 3.26423C11.9692 3.34087 11.6112 3.61348 11.4379 4.10904C11.417 4.16739 11.3952 4.22661 11.3569 4.332C11.3203 4.25013 11.3012 4.21877 11.2916 4.18481C11.1244 3.60215 10.7202 3.313 10.1332 3.25291C9.56974 3.19543 9.04283 3.34958 8.5194 3.53335C7.25829 3.97666 6.00415 4.4548 4.6603 4.58979C3.8573 4.67079 3.04646 4.72653 2.25565 4.50183C1.28456 4.224 0.729781 3.23985 0.984093 2.28443C1.24624 1.2968 2.19817 0.717627 3.19104 0.950166C3.69443 1.06861 4.09681 1.36473 4.47044 1.70962C4.69339 1.91603 4.92767 2.11025 5.15412 2.30708Z" fill="white"/>
<path d="M12.2426 22.0627C12.0937 22.2465 11.9604 22.4154 11.8211 22.58C11.5554 22.8953 11.2672 22.897 11.0033 22.5861C10.8509 22.4067 10.7011 22.2238 10.5504 22.0427C10.5443 22.0357 10.533 22.0339 10.5016 22.0191C10.4685 22.0488 10.4276 22.0845 10.3884 22.1228C10.1245 22.3815 9.93289 22.3989 9.63678 22.1742C9.04193 21.7204 8.44882 21.264 7.8592 20.8042C7.72334 20.6988 7.61708 20.623 7.42025 20.718C7.19033 20.8286 6.99175 20.7084 6.83499 20.5072C6.29065 19.8078 5.73587 19.1172 5.18893 18.4205C5.09399 18.3003 5.01387 18.2158 4.82923 18.2402C4.56882 18.2741 4.42425 18.0982 4.32931 17.8665C3.88166 16.7753 3.43138 15.6849 2.97589 14.5971C2.9245 14.4734 2.85744 14.3384 2.75815 14.2565C2.51168 14.0553 2.43852 13.8141 2.44984 13.5032C2.496 12.2638 2.523 11.0236 2.55784 9.78342C2.56045 9.70503 2.55958 9.62404 2.577 9.54826C2.62664 9.34098 2.73986 9.19031 2.96631 9.15896C3.20059 9.12673 3.36432 9.22689 3.4697 9.43504C3.57596 9.64494 3.66741 9.86616 3.79892 10.0595C4.16645 10.6038 4.66637 10.7606 5.29082 10.5481C5.37443 10.5194 5.46675 10.4993 5.53643 10.4497C6.11385 10.0325 6.68432 10.1753 7.26349 10.4471C7.69024 10.6474 8.12571 10.8285 8.55943 11.0149C8.73362 11.0898 8.8599 11.0733 8.96877 10.8747C9.11335 10.6099 9.38159 10.5768 9.65507 10.7484C9.93899 10.9252 10.2151 11.1142 10.5034 11.284C11.0128 11.5845 11.5311 11.5906 12.0423 11.2893C12.3219 11.1247 12.5918 10.9452 12.8662 10.7702C13.1876 10.5655 13.3931 10.6125 13.6239 10.9069C13.684 10.9836 13.8382 11.0498 13.9287 11.0288C14.1465 10.9792 14.3546 10.8817 14.5619 10.7911C14.9129 10.6378 15.256 10.4636 15.6105 10.3182C16.0486 10.1388 16.464 10.1379 16.9073 10.3861C17.8253 10.9008 18.5194 10.6483 18.9767 9.69197C19.0193 9.60313 19.055 9.51169 19.0977 9.42285C19.2083 9.19554 19.3973 9.10844 19.6342 9.16941C19.8833 9.23299 20.1489 9.30527 20.1585 9.6371C20.196 10.9757 20.2386 12.3143 20.2517 13.653C20.2534 13.8333 20.1063 14.0205 20.0113 14.1947C19.9329 14.3384 19.8032 14.456 19.7405 14.604C19.2893 15.6727 18.8451 16.7439 18.4079 17.8186C18.2912 18.1052 18.1327 18.282 17.7904 18.2428C17.7155 18.2341 17.6075 18.3307 17.5475 18.4056C16.9927 19.0963 16.4414 19.7904 15.8962 20.4889C15.708 20.7302 15.5016 20.8164 15.2029 20.6936C15.1263 20.6622 14.9826 20.718 14.9033 20.7772C14.3285 21.2083 13.7615 21.6499 13.1919 22.0888C12.746 22.4276 12.7138 22.4276 12.2426 22.0627Z" fill="#CBA769"/>
<path d="M5.1546 2.30647C4.92816 2.10963 4.69388 1.91629 4.47092 1.70988C4.09729 1.36499 3.69492 1.068 3.19152 0.950424C2.19865 0.717014 1.2476 1.29705 0.984576 2.28382C0.730263 3.2401 1.28505 4.22339 2.25788 4.50034C3.04868 4.72504 3.85952 4.67018 4.66252 4.58831C6.0055 4.45244 7.25964 3.97517 8.52162 3.53187C9.04418 3.3481 9.5711 3.19395 10.1355 3.25143C10.7225 3.31152 11.1266 3.5998 11.2938 4.18332C11.3034 4.21729 11.3217 4.24864 11.3591 4.33051C11.3974 4.22426 11.4192 4.1659 11.4401 4.10755C11.6134 3.61199 11.9714 3.33939 12.4809 3.26275C13.0113 3.18349 13.5147 3.31152 14.0163 3.46916C15.0937 3.80708 16.1632 4.17984 17.2579 4.45244C18.2944 4.71111 19.3673 4.77033 20.4168 4.5047C21.4985 4.23035 22.0524 3.11992 21.6718 2.09657C21.2973 1.09064 20.1573 0.598567 19.1757 1.08281C18.7455 1.29531 18.3849 1.65327 18.0043 1.95896C17.8606 2.07393 17.75 2.22982 17.6237 2.36656C17.5959 2.36133 17.568 2.35698 17.5401 2.35175C17.5645 2.15231 17.561 1.94503 17.6168 1.75517C18.1141 0.0490089 20.3175 -0.543225 21.7119 0.64821C22.818 1.59317 23.0392 3.39339 22.2014 4.71982C21.6448 5.60033 20.8383 6.19605 19.8934 6.58361C17.5044 7.56428 15.1033 7.55296 12.7221 6.55052C12.0445 6.26572 11.549 5.77278 11.3696 4.91578C10.9898 6.27879 9.95169 6.69683 8.843 6.97031C6.88862 7.45367 4.9447 7.43887 3.04694 6.6829C2.18472 6.33975 1.42178 5.84855 0.813002 5.13525C-0.325307 3.80621 -0.26347 1.7421 0.974995 0.679564C2.29881 -0.456132 4.01281 -0.122565 4.92293 1.33886C5.11367 1.6463 5.20163 1.98422 5.1546 2.30647Z" fill="#CBA769"/>
</svg>
