<svg width="32" height="32" viewBox="0 0 32 32" fill="none" xmlns="http://www.w3.org/2000/svg">
<rect x="0.5" y="0.5" width="31" height="31" rx="7.5" stroke="#E0E0E0"/>
<path d="M6.8119 23.0121C6.65247 23.6364 6.1445 24.1667 5.50016 24.1667C4.85583 24.1667 4.32358 23.6407 4.43047 23.0053C4.67033 21.5796 5.34798 20.2527 6.38375 19.2169C7.6965 17.9042 9.47698 17.1667 11.3335 17.1667C13.19 17.1667 14.9705 17.9042 16.2832 19.2169C17.319 20.2527 17.9967 21.5796 18.2365 23.0053C18.3434 23.6407 17.8112 24.1667 17.1668 24.1667C16.5225 24.1667 16.0145 23.6364 15.8551 23.0121C15.6495 22.2071 15.2308 21.4643 14.6333 20.8668C13.7582 19.9917 12.5712 19.5 11.3335 19.5C10.0958 19.5 8.90883 19.9917 8.03366 20.8668C7.43621 21.4643 7.01748 22.2071 6.8119 23.0121ZM24.1668 19.5C24.1668 20.1443 23.6445 20.6667 23.0002 20.6667C22.3558 20.6667 21.8335 20.1443 21.8335 19.5V17.1667H19.5002C18.8558 17.1667 18.3335 16.6443 18.3335 16C18.3335 15.3557 18.8558 14.8333 19.5002 14.8333H21.8335V12.5C21.8335 11.8557 22.3558 11.3333 23.0002 11.3333C23.6445 11.3333 24.1668 11.8557 24.1668 12.5V14.8333H26.5002C27.1445 14.8333 27.6668 15.3557 27.6668 16C27.6668 16.6443 27.1445 17.1667 26.5002 17.1667H24.1668V19.5ZM11.3335 16C10.0958 16 8.90883 15.5083 8.03366 14.6332C7.15849 13.758 6.66683 12.571 6.66683 11.3333C6.66683 10.0957 7.15849 8.90867 8.03366 8.0335C8.90883 7.15833 10.0958 6.66666 11.3335 6.66666C12.5712 6.66666 13.7582 7.15833 14.6333 8.0335C15.5085 8.90867 16.0002 10.0957 16.0002 11.3333C16.0002 12.571 15.5085 13.758 14.6333 14.6332C13.7582 15.5083 12.5712 16 11.3335 16ZM11.3335 9C10.8766 9.00046 10.4299 9.13506 10.0487 9.38711C9.66763 9.63916 9.36891 9.99755 9.18963 10.4178C9.01035 10.8381 8.95842 11.3018 9.04027 11.7513C9.12212 12.2008 9.33414 12.6164 9.65005 12.9465C9.96595 13.2767 10.3718 13.5068 10.8173 13.6083C11.2628 13.7099 11.7283 13.6784 12.1561 13.5178C12.5838 13.3571 12.955 13.0745 13.2236 12.7048C13.4921 12.3352 13.6463 11.8948 13.6668 11.4383V11.905V11.3333C13.6668 10.7145 13.421 10.121 12.9834 9.68341C12.5458 9.24583 11.9523 9 11.3335 9Z" fill="#4F4F4F"/>
</svg>
