<svg width="62" height="62" viewBox="0 0 62 62" fill="none" xmlns="http://www.w3.org/2000/svg">
<path d="M19.3721 28.4166C21.5122 28.4166 23.2471 26.6817 23.2471 24.5416C23.2471 22.4015 21.5122 20.6666 19.3721 20.6666C17.232 20.6666 15.4971 22.4015 15.4971 24.5416C15.4971 26.6817 17.232 28.4166 19.3721 28.4166Z" fill="#AAC938"/>
<path d="M27.1221 36.1667L23.2471 31L15.4971 41.3334H46.4971L34.8721 25.8334L27.1221 36.1667Z" fill="#AAC938"/>
<path d="M51.6641 10.3334H10.3307C7.48131 10.3334 5.16406 12.6506 5.16406 15.5V46.5C5.16406 49.3495 7.48131 51.6667 10.3307 51.6667H51.6641C54.5135 51.6667 56.8307 49.3495 56.8307 46.5V15.5C56.8307 12.6506 54.5135 10.3334 51.6641 10.3334ZM10.3307 46.5V15.5H51.6641L51.6692 46.5H10.3307V46.5Z" fill="#AAC938"/>
</svg>
