<svg width="25" height="25" viewBox="0 0 25 25" fill="none" xmlns="http://www.w3.org/2000/svg">
<path d="M12.4997 17.7083L13.5413 15.6249V10.2687C15.3341 9.80304 16.6663 8.18533 16.6663 6.24992C16.6663 3.952 14.7976 2.08325 12.4997 2.08325C10.2018 2.08325 8.33301 3.952 8.33301 6.24992C8.33301 8.18533 9.6653 9.80304 11.458 10.2687V15.6249L12.4997 17.7083ZM10.4163 6.24992C10.4163 5.10096 11.3507 4.16658 12.4997 4.16658C13.6486 4.16658 14.583 5.10096 14.583 6.24992C14.583 7.39888 13.6486 8.33325 12.4997 8.33325C11.3507 8.33325 10.4163 7.39888 10.4163 6.24992Z" fill="#AAC938"/>
<path d="M16.9445 11.0032L16.3893 13.0116C19.0882 13.7574 20.833 15.1918 20.833 16.6668C20.833 18.6376 17.4111 20.8334 12.4997 20.8334C7.58822 20.8334 4.16634 18.6376 4.16634 16.6668C4.16634 15.1918 5.91113 13.7574 8.61113 13.0105L8.05593 11.0022C4.37155 12.0209 2.08301 14.1907 2.08301 16.6668C2.08301 20.1709 6.65905 22.9168 12.4997 22.9168C18.3403 22.9168 22.9163 20.1709 22.9163 16.6668C22.9163 14.1907 20.6278 12.0209 16.9445 11.0032Z" fill="#AAC938"/>
</svg>
