<svg width="24" height="24" viewBox="0 0 24 24" fill="none" xmlns="http://www.w3.org/2000/svg">
<path d="M5.5001 15C6.3752 14.995 7.21688 14.6633 7.8601 14.07L14.1201 17.65C14.0404 17.9262 14 18.2124 14.0001 18.5C13.9937 19.3115 14.2671 20.1005 14.7743 20.734C15.2815 21.3676 15.9915 21.807 16.7848 21.9783C17.5781 22.1497 18.4061 22.0424 19.1296 21.6747C19.8531 21.3069 20.4277 20.7011 20.7568 19.9592C21.0859 19.2174 21.1493 18.3848 20.9363 17.6017C20.7234 16.8185 20.2471 16.1327 19.5876 15.6596C18.9282 15.1866 18.1259 14.9552 17.3158 15.0044C16.5058 15.0536 15.7374 15.3805 15.1401 15.93L8.8801 12.35C8.95565 12.1035 8.99605 11.8477 9.0001 11.59L15.1501 8.06996C15.7442 8.6068 16.5047 8.92304 17.3043 8.96566C18.1039 9.00827 18.8938 8.77466 19.5415 8.30401C20.1893 7.83335 20.6555 7.15428 20.862 6.38068C21.0685 5.60707 21.0027 4.78599 20.6757 4.05514C20.3486 3.32428 19.7802 2.7281 19.0658 2.36659C18.3514 2.00507 17.5344 1.90021 16.7518 2.06958C15.9692 2.23896 15.2687 2.67227 14.7677 3.29685C14.2667 3.92143 13.9957 4.69928 14.0001 5.49996C14.0035 5.78727 14.0438 6.07294 14.1201 6.34996L8.4301 9.59996C8.10041 9.08991 7.64367 8.67444 7.10479 8.39436C6.5659 8.11429 5.9634 7.97926 5.35653 8.00254C4.74965 8.02583 4.15928 8.20663 3.64343 8.52717C3.12759 8.84772 2.70403 9.29697 2.41439 9.83078C2.12475 10.3646 1.979 10.9646 1.99146 11.5718C2.00392 12.179 2.17416 12.7725 2.48545 13.2939C2.79675 13.8154 3.23837 14.2469 3.76693 14.546C4.29549 14.8452 4.89278 15.0016 5.5001 15ZM17.5001 17C17.7968 17 18.0868 17.0879 18.3335 17.2528C18.5801 17.4176 18.7724 17.6518 18.8859 17.9259C18.9995 18.2 19.0292 18.5016 18.9713 18.7926C18.9134 19.0836 18.7705 19.3508 18.5608 19.5606C18.351 19.7704 18.0837 19.9133 17.7927 19.9711C17.5018 20.029 17.2002 19.9993 16.9261 19.8858C16.652 19.7722 16.4177 19.58 16.2529 19.3333C16.0881 19.0866 16.0001 18.7966 16.0001 18.5C16.0001 18.1021 16.1581 17.7206 16.4394 17.4393C16.7207 17.158 17.1023 17 17.5001 17ZM17.5001 3.99996C17.7968 3.99996 18.0868 4.08793 18.3335 4.25275C18.5801 4.41758 18.7724 4.65184 18.8859 4.92593C18.9995 5.20002 19.0292 5.50162 18.9713 5.79259C18.9134 6.08357 18.7705 6.35084 18.5608 6.56062C18.351 6.7704 18.0837 6.91326 17.7927 6.97114C17.5018 7.02901 17.2002 6.99931 16.9261 6.88578C16.652 6.77225 16.4177 6.57999 16.2529 6.33331C16.0881 6.08664 16.0001 5.79663 16.0001 5.49996C16.0001 5.10213 16.1581 4.7206 16.4394 4.4393C16.7207 4.15799 17.1023 3.99996 17.5001 3.99996ZM5.5001 9.99996C5.79677 9.99996 6.08678 10.0879 6.33346 10.2528C6.58013 10.4176 6.77239 10.6518 6.88592 10.9259C6.99945 11.2 7.02916 11.5016 6.97128 11.7926C6.9134 12.0836 6.77054 12.3508 6.56076 12.5606C6.35098 12.7704 6.08371 12.9133 5.79274 12.9711C5.50177 13.029 5.20017 12.9993 4.92608 12.8858C4.65199 12.7722 4.41772 12.58 4.2529 12.3333C4.08808 12.0866 4.0001 11.7966 4.0001 11.5C4.0001 11.1021 4.15814 10.7206 4.43944 10.4393C4.72075 10.158 5.10228 9.99996 5.5001 9.99996Z" fill="#828282"/>
</svg>
