<svg width="21" height="20" viewBox="0 0 21 20" fill="none" xmlns="http://www.w3.org/2000/svg">
<path d="M10.5 1.25C8.58617 1.25215 6.75136 1.97717 5.39807 3.26602C4.04479 4.55486 3.28352 6.3023 3.28126 8.125C3.27897 9.61452 3.78984 11.0636 4.73551 12.25C4.73551 12.25 4.93238 12.4969 4.96454 12.5325L10.5 18.75L16.0381 12.5294C16.067 12.4963 16.2645 12.25 16.2645 12.25L16.2652 12.2481C17.2104 11.0623 17.721 9.61383 17.7188 8.125C17.7165 6.3023 16.9552 4.55486 15.6019 3.26602C14.2487 1.97717 12.4138 1.25215 10.5 1.25V1.25ZM10.5 10.625C9.98083 10.625 9.47331 10.4784 9.04164 10.2037C8.60996 9.92897 8.2735 9.53852 8.07482 9.08171C7.87614 8.62489 7.82416 8.12223 7.92545 7.63727C8.02673 7.15232 8.27674 6.70686 8.64385 6.35723C9.01096 6.0076 9.4787 5.7695 9.9879 5.67304C10.4971 5.57657 11.0249 5.62608 11.5046 5.8153C11.9842 6.00452 12.3942 6.32495 12.6826 6.73607C12.9711 7.1472 13.125 7.63055 13.125 8.125C13.1241 8.78779 12.8473 9.42319 12.3552 9.89185C11.8631 10.3605 11.1959 10.6242 10.5 10.625V10.625Z" fill="#AAC938"/>
</svg>
