<svg height="512" viewBox="0 0 58 54" width="512" xmlns="http://www.w3.org/2000/svg"><g id="Page-1" fill="none" fill-rule="evenodd"><g id="030---Shorts-and-Tshirts" fill-rule="nonzero"><path id="Shape" d="m23.61 38h-13.61c-.55228475 0-1-.4477153-1-1v-24l-2.24 2.24c-.39300794.3899779-1.02699206.3899779-1.42 0l-4.63-4.63c-.38997787-.3930079-.38997787-1.02699206 0-1.42l8.9-8.9c.18679996-.18393188.4378533-.28793967.7-.29h21.38c.2621467.00206033.5132.10606812.7.29l8.9 8.9c.3899779.39300794.3899779 1.0269921 0 1.42l-4.63 4.63c-.3930079.3899779-1.0269921.3899779-1.42 0l-2.24-2.24v14z" fill="#f29c1f"/><path id="Shape" d="m56.93 51.2-14.07 2.64c-.4938631.0919324-.9800381-.1938021-1.14-.67l-2.72-8.17-2.72 8.17c-.1599619.4761979-.6461369.7619324-1.14.67l-14.07-2.64c-.2753061-.051447-.5164204-.2159879-.6646873-.4535951s-.1900964-.5265018-.1153127-.7964049l3.32-11.95 1.39-5h28l4.71 16.95c.0747837.2699031.0329542.5587977-.1153127.7964049s-.3893812.4021481-.6646873.4535951z" fill="#e64c3c"/><path id="Shape" d="m37.7 42.1c-.4302393-.0003267-.8120445-.2758064-.948-.684l-3.4-10.2c-.1130746-.3394023-.0364908-.7133476.2009029-.9809742.2373938-.2676266.5995317-.3882757.9500001-.3165.3504683.0717758.6360225.3250719.749097.6644742l3.4 10.2c.1021455.3056001.0507772.6416961-.1379876.9028339-.1887648.2611379-.4917954.4153185-.8140124.4141661z" fill="#802f34"/><path id="Shape" d="m27 .98c0 3.3026628-2.6773372 5.98-5.98 5.98s-5.98-2.6773372-5.98-5.98c-.0007273-.32876302.0294048-.65686864.09-.98h11.78c.0605952.32313136.0907273.65123698.09.98z" fill="#d25627"/><circle id="Oval" cx="49.5" cy="45.5" fill="#f9eab0" r="2.5"/><circle id="Oval" cx="26.5" cy="12.5" fill="#f9eab0" r="2.5"/><path id="Shape" d="m53 29v4h-28v-4c.0032948-1.1032019.8967981-1.9967052 2-2h24c1.1032019.0032948 1.9967052.8967981 2 2z" fill="#c03a2b"/></g></g></svg>