<svg width="24" height="25" viewBox="0 0 24 25" fill="none" xmlns="http://www.w3.org/2000/svg">
<rect x="0.5" y="1" width="23" height="23" rx="6.5" stroke="#828282"/>
<path d="M8.24956 10.1007C8.08243 8.99993 8.85856 8.01118 10.0442 7.64893C10.2546 7.5846 10.4816 7.60291 10.679 7.70013C10.8763 7.79735 11.0292 7.96617 11.1064 8.17218L11.4871 9.18718C11.5483 9.35047 11.5594 9.52834 11.5189 9.69797C11.4783 9.86759 11.388 10.0212 11.2596 10.1392L10.1273 11.1761C10.0715 11.2273 10.0299 11.2921 10.0066 11.3641C9.98329 11.4362 9.97905 11.5131 9.99431 11.5873L10.0048 11.6328L10.0319 11.7466C10.1727 12.2992 10.3873 12.8305 10.6698 13.3259C10.9776 13.8524 11.3595 14.3319 11.8038 14.7496L11.8388 14.7811C11.8953 14.8312 11.9639 14.8659 12.0378 14.8817C12.1117 14.8975 12.1885 14.8939 12.2606 14.8712L13.7244 14.4101C13.8908 14.3578 14.069 14.3565 14.2361 14.4062C14.4032 14.456 14.5517 14.5545 14.6624 14.6892L15.3554 15.5301C15.6442 15.8801 15.6092 16.3946 15.2776 16.7034C14.3702 17.5496 13.1224 17.7228 12.2544 17.0254C11.1905 16.1672 10.2935 15.1205 9.60843 13.9376C8.91779 12.7556 8.45646 11.4538 8.24868 10.1007H8.24956ZM10.9122 11.6451L11.8502 10.7841C12.1073 10.5483 12.2881 10.241 12.3693 9.90177C12.4505 9.56251 12.4285 9.20671 12.3061 8.88005L11.9263 7.86505C11.7709 7.45052 11.4632 7.11086 11.066 6.91528C10.6688 6.71969 10.212 6.68291 9.78868 6.81243C8.31606 7.26305 7.13393 8.58343 7.38418 10.2328C7.55918 11.3843 7.96256 12.8491 8.85243 14.3786C9.59155 15.654 10.5591 16.7826 11.7067 17.7079C13.0087 18.7536 14.7464 18.3966 15.8752 17.3448C16.5454 16.7201 16.6137 15.6823 16.0318 14.9753L15.3388 14.1336C15.1171 13.8645 14.8201 13.6677 14.4859 13.5686C14.1516 13.4694 13.7954 13.4724 13.4628 13.5771L12.2474 13.9594C11.9336 13.6359 11.6588 13.2767 11.4284 12.8893C11.2059 12.4976 11.0325 12.08 10.9122 11.6459V11.6451Z" fill="#E0E0E0"/>
</svg>
