<svg width="24" height="24" viewBox="0 0 24 24" fill="none" xmlns="http://www.w3.org/2000/svg">
<rect x="0.5" y="0.5" width="23" height="23" rx="6.5" stroke="white"/>
<path d="M9.06525 9.37497H9.59375C9.7678 9.37497 9.93472 9.44411 10.0578 9.56718C10.1809 9.69025 10.25 9.85717 10.25 10.0312C10.25 10.2053 10.1809 10.3722 10.0578 10.4953C9.93472 10.6183 9.7678 10.6875 9.59375 10.6875H7.40625C7.2322 10.6875 7.06528 10.6183 6.94221 10.4953C6.81914 10.3722 6.75 10.2053 6.75 10.0312V7.84372C6.75 7.66967 6.81914 7.50275 6.94221 7.37968C7.06528 7.25661 7.2322 7.18747 7.40625 7.18747C7.5803 7.18747 7.74722 7.25661 7.87029 7.37968C7.99336 7.50275 8.0625 7.66967 8.0625 7.84372V8.5271C8.85416 7.63 9.92849 7.03022 11.1076 6.82708C12.2867 6.62395 13.4998 6.82964 14.546 7.41011C15.5922 7.99057 16.4088 8.91097 16.8604 10.0189C17.3121 11.1268 17.3718 12.3558 17.0297 13.5023C16.6875 14.6487 15.964 15.644 14.979 16.3231C13.9939 17.0023 12.8065 17.3246 11.6133 17.2367C10.4201 17.1488 9.29264 16.656 8.41776 15.8398C7.54287 15.0237 6.97299 13.9332 6.8025 12.749C6.7779 12.5765 6.8228 12.4014 6.92733 12.2621C7.03186 12.1228 7.18745 12.0307 7.35988 12.0061C7.5323 11.9815 7.70743 12.0264 7.84675 12.1309C7.98606 12.2355 8.07815 12.391 8.10275 12.5635C8.23085 13.4506 8.65774 14.2675 9.31288 14.8792C9.96803 15.4909 10.8122 15.8609 11.7061 15.9279C12.5999 15.995 13.4899 15.7552 14.2289 15.248C14.968 14.7409 15.512 13.9968 15.771 13.1387C16.0301 12.2806 15.9886 11.3599 15.6536 10.5285C15.3186 9.69714 14.71 9.00492 13.9283 8.56621C13.1467 8.1275 12.2388 7.96854 11.3546 8.11559C10.4704 8.26264 9.66282 8.70689 9.06525 9.37497ZM11.7812 9.37497C11.9553 9.37497 12.1222 9.44411 12.2453 9.56718C12.3684 9.69025 12.4375 9.85717 12.4375 10.0312V11.5625H13.0938C13.2678 11.5625 13.4347 11.6316 13.5578 11.7547C13.6809 11.8778 13.75 12.0447 13.75 12.2187C13.75 12.3928 13.6809 12.5597 13.5578 12.6828C13.4347 12.8058 13.2678 12.875 13.0938 12.875H11.7812C11.6072 12.875 11.4403 12.8058 11.3172 12.6828C11.1941 12.5597 11.125 12.3928 11.125 12.2187V10.0312C11.125 9.85717 11.1941 9.69025 11.3172 9.56718C11.4403 9.44411 11.6072 9.37497 11.7812 9.37497Z" fill="white"/>
</svg>
