<svg id="Layer_1" enable-background="new 0 0 512 512" height="512" viewBox="0 0 512 512" width="512" xmlns="http://www.w3.org/2000/svg"><g><path d="m200 0h-160c-22.056 0-40 17.944-40 40v224c0 22.056 17.944 40 40 40h160c22.056 0 40-17.944 40-40v-224c0-22.056-17.944-40-40-40zm24 264c0 13.233-10.766 24-24 24h-160c-13.234 0-24-10.767-24-24v-224c0-13.233 10.766-24 24-24h160c13.234 0 24 10.767 24 24z"/><path d="m200 336h-160c-22.056 0-40 17.944-40 40v96c0 22.056 17.944 40 40 40h160c22.056 0 40-17.944 40-40v-96c0-22.056-17.944-40-40-40zm24 136c0 13.233-10.766 24-24 24h-160c-13.234 0-24-10.767-24-24v-96c0-13.233 10.766-24 24-24h160c13.234 0 24 10.767 24 24z"/><path d="m512 472v-224c0-22.056-17.944-40-40-40h-160c-22.056 0-40 17.944-40 40v224c0 22.056 17.944 40 40 40h160c22.056 0 40-17.944 40-40zm-16 0c0 13.233-10.766 24-24 24h-160c-13.234 0-24-10.767-24-24v-224c0-13.233 10.766-24 24-24h160c13.234 0 24 10.767 24 24z"/><path d="m512 136v-96c0-22.056-17.944-40-40-40h-160c-22.056 0-40 17.944-40 40v96c0 22.056 17.944 40 40 40h160c22.056 0 40-17.944 40-40zm-16 0c0 13.233-10.766 24-24 24h-160c-13.234 0-24-10.767-24-24v-96c0-13.233 10.766-24 24-24h160c13.234 0 24 10.767 24 24z"/></g></svg>