<svg width="21" height="21" viewBox="0 0 21 21" fill="none" xmlns="http://www.w3.org/2000/svg">
<path d="M1.94995 4.8H3.84995H19.05" stroke="#313345" stroke-width="2" stroke-linecap="round" stroke-linejoin="round"/>
<path d="M6.69998 4.8V2.9C6.69998 2.39609 6.90015 1.91282 7.25647 1.5565C7.61279 1.20018 8.09606 1 8.59998 1H12.4C12.9039 1 13.3872 1.20018 13.7435 1.5565C14.0998 1.91282 14.3 2.39609 14.3 2.9V4.8M17.15 4.8V18.1C17.15 18.6039 16.9498 19.0872 16.5935 19.4435C16.2372 19.7998 15.7539 20 15.25 20H5.74998C5.24606 20 4.76279 19.7998 4.40647 19.4435C4.05015 19.0872 3.84998 18.6039 3.84998 18.1V4.8H17.15Z" stroke="#313345" stroke-width="2" stroke-linecap="round" stroke-linejoin="round"/>
</svg>
