<svg width="32" height="32" viewBox="0 0 32 32" fill="none" xmlns="http://www.w3.org/2000/svg">
<rect x="1" y="1" width="30" height="30" rx="7" stroke="#BDBDBD" stroke-width="2"/>
<path d="M19.7277 10.5068L21.4927 12.2709L19.7277 10.5068ZM20.8627 8.9526L16.0902 13.7251C15.8436 13.9713 15.6754 14.2851 15.6068 14.6268L15.166 16.8334L17.3727 16.3918C17.7143 16.3234 18.0277 16.1559 18.2743 15.9093L23.0468 11.1368C23.1903 10.9934 23.304 10.8231 23.3816 10.6357C23.4593 10.4483 23.4992 10.2475 23.4992 10.0447C23.4992 9.84186 23.4593 9.64103 23.3816 9.45365C23.304 9.26627 23.1903 9.09601 23.0468 8.9526C22.9034 8.80919 22.7332 8.69542 22.5458 8.61781C22.3584 8.54019 22.1576 8.50024 21.9548 8.50024C21.7519 8.50024 21.5511 8.54019 21.3637 8.61781C21.1764 8.69542 21.0061 8.80919 20.8627 8.9526V8.9526Z" stroke="#4F4F4F" stroke-width="1.5" stroke-linecap="round" stroke-linejoin="round"/>
<path d="M21.833 18.5001V21.0001C21.833 21.4421 21.6574 21.866 21.3449 22.1786C21.0323 22.4912 20.6084 22.6667 20.1663 22.6667H10.9997C10.5576 22.6667 10.1337 22.4912 9.82116 22.1786C9.5086 21.866 9.33301 21.4421 9.33301 21.0001V11.8334C9.33301 11.3914 9.5086 10.9675 9.82116 10.6549C10.1337 10.3423 10.5576 10.1667 10.9997 10.1667H13.4997" stroke="#4F4F4F" stroke-width="1.5" stroke-linecap="round" stroke-linejoin="round"/>
</svg>
