<svg height="472pt" viewBox="-3 0 471 472" width="472pt" xmlns="http://www.w3.org/2000/svg"><path d="m256.5 0h208v448h-208zm0 0" fill="#e3584b"/><path d="m256.5 144h208v16h-208zm0 0" fill="#cc4f43"/><path d="m288.5 48h16v80h-16zm0 0" fill="#d6d9db"/><path d="m288.5 176h16v112h-16zm0 0" fill="#d6d9db"/><path d="m264.5 448h16v24h-16zm0 0" fill="#0a4a7a"/><path d="m440.5 448h16v24h-16zm0 0" fill="#0a4a7a"/><path d="m.5 168h224v280h-224zm0 0" fill="#4398d1"/><g fill="#2d81ba"><path d="m.5 224h224v16h-224zm0 0"/><path d="m24.5 192h16v16h-16zm0 0"/><path d="m56.5 192h16v16h-16zm0 0"/><path d="m88.5 192h16v16h-16zm0 0"/><path d="m152.5 192h48v16h-48zm0 0"/></g><path d="m.5 0h224v136h-224zm0 0" fill="#ffa217"/><path d="m32.5 32h96v72h-96zm0 0" fill="#87ced9"/><path d="m8.5 448h16v24h-16zm0 0" fill="#0a4a7a"/><path d="m200.5 448h16v24h-16zm0 0" fill="#0a4a7a"/><path d="m208.5 344c0 48.601562-39.398438 88-88 88s-88-39.398438-88-88 39.398438-88 88-88 88 39.398438 88 88zm0 0" fill="#3e8dc2"/><path d="m192.5 336c0 44.183594-35.816406 80-80 80s-80-35.816406-80-80 35.816406-80 80-80 80 35.816406 80 80zm0 0" fill="#d6d9db"/><path d="m168.5 336c0 30.929688-25.070312 56-56 56s-56-25.070312-56-56 25.070312-56 56-56 56 25.070312 56 56zm0 0" fill="#71c4d1"/><path d="m152.5 336c0 22.089844-17.910156 40-40 40s-40-17.910156-40-40 17.910156-40 40-40 40 17.910156 40 40zm0 0" fill="#87ced9"/><path d="m169.066406 279.433594-32.566406 32.566406v48l32.566406 32.566406c31.242188-31.238281 31.242188-81.894531 0-113.132812zm0 0" fill="#d6d9db"/><path d="m32.5 32h96v16h-96zm0 0" fill="#71c4d1"/><path d="m184.5 24h16v16h-16zm0 0" fill="#eb8b23"/><path d="m184.5 56h16v16h-16zm0 0" fill="#eb8b23"/><path d="m192.5 92c-6.628906 0-12 5.371094-12 12s5.371094 12 12 12 12-5.371094 12-12-5.371094-12-12-12zm0 0" fill="#eb8b23"/><path d="m152.5 0h16v136h-16zm0 0" fill="#eb8b23"/><path d="m304.5 48v80h-16v16h32v-96zm0 0" fill="#cf4e42"/><path d="m304.5 176v112h-16v16h32v-128zm0 0" fill="#cf4e42"/></svg>