<svg width="28" height="28" viewBox="0 0 28 28" fill="none" xmlns="http://www.w3.org/2000/svg">
<rect width="28" height="28" rx="7" fill="#F1F1F1"/>
<path d="M19.8337 7.33337H8.16699C7.50395 7.33337 6.86807 7.59677 6.39923 8.06561C5.93038 8.53445 5.66699 9.17033 5.66699 9.83337V18.1667C5.66699 18.8297 5.93038 19.4656 6.39923 19.9345C6.86807 20.4033 7.50395 20.6667 8.16699 20.6667H19.8337C20.4967 20.6667 21.1326 20.4033 21.6014 19.9345C22.0703 19.4656 22.3337 18.8297 22.3337 18.1667V9.83337C22.3337 9.17033 22.0703 8.53445 21.6014 8.06561C21.1326 7.59677 20.4967 7.33337 19.8337 7.33337ZM19.2753 9.00004L14.0003 12.9584L8.72533 9.00004H19.2753ZM19.8337 19H8.16699C7.94598 19 7.73402 18.9122 7.57774 18.756C7.42146 18.5997 7.33366 18.3877 7.33366 18.1667V10.0417L13.5003 14.6667C13.6446 14.7749 13.82 14.8334 14.0003 14.8334C14.1806 14.8334 14.3561 14.7749 14.5003 14.6667L20.667 10.0417V18.1667C20.667 18.3877 20.5792 18.5997 20.4229 18.756C20.2666 18.9122 20.0547 19 19.8337 19Z" fill="#4F4F4F"/>
</svg>
