<svg width="24" height="19" viewBox="0 0 24 19" fill="none" xmlns="http://www.w3.org/2000/svg">
<path d="M23.9219 6.04449C20.7525 -0.309399 13.8305 -0.463516 10.613 0.34278L0.533438 2.8569C0.132806 2.95714 -0.0971971 3.38127 0.03968 3.77346L1.04657 6.65971C1.41595 7.76171 2.60535 8.36126 3.71286 7.99163C3.71911 7.98913 3.72599 7.98725 3.73224 7.98474L11.2636 5.21815C15.1337 3.79664 19.5819 4.45007 22.8719 6.92346C23.4625 7.36765 24.2526 6.7067 23.9219 6.04449ZM10.7798 3.89437L3.25911 6.6572C2.89285 6.77436 2.50034 6.57576 2.37784 6.20863C2.37659 6.2055 1.62095 4.03784 1.62095 4.03784L10.9536 1.70979C13.2749 1.12778 17.7768 1.10334 20.8563 4.14935C17.5525 2.74789 13.9336 2.73598 10.7798 3.89437Z" fill="#CBA769"/>
<path d="M21.4189 10.024C19.9939 10.8785 17.2682 14.1112 12.1012 14.1112C8.21993 14.1112 6.05927 12.2988 3.87674 11.3672C3.52986 11.193 3.10735 11.334 2.9336 11.6823C2.75985 12.03 2.90047 12.4535 3.24798 12.6277L4.293 13.1514L3.16298 14.8505C2.94798 15.1744 3.03485 15.6117 3.35798 15.8278C3.67924 16.0427 4.11674 15.9575 4.333 15.6323L5.56052 13.7867C6.06677 14.0285 6.69241 14.3988 7.76805 14.7772L7.24492 16.8747C7.15054 17.2524 7.37992 17.6346 7.75618 17.7292C8.13118 17.8232 8.51431 17.5958 8.60869 17.2167L9.1187 15.1731C9.83371 15.341 10.5625 15.4494 11.295 15.4958V17.6352C11.295 18.0243 11.61 18.34 11.9981 18.34C12.3862 18.34 12.7013 18.0243 12.7013 17.6352V15.5064C13.4375 15.4719 14.1694 15.3736 14.8882 15.2151L15.4 17.2681C15.495 17.6471 15.8776 17.8746 16.2526 17.7806C16.6294 17.686 16.8582 17.3038 16.7638 16.926L16.2438 14.8398C17.0169 14.5805 17.7657 14.249 18.4782 13.85L19.6689 15.6405C19.8851 15.965 20.322 16.0508 20.6439 15.8359C20.967 15.6198 21.0545 15.1825 20.8389 14.8586L19.667 13.0969C19.9426 12.9008 19.8645 12.9516 22.262 11.1517C22.5727 10.918 22.6358 10.4763 22.4027 10.1649C22.1702 9.85356 21.7295 9.79029 21.4189 10.024Z" fill="#CBA769"/>
</svg>
