<svg width="24" height="20" viewBox="0 0 24 20" fill="none" xmlns="http://www.w3.org/2000/svg">
<path d="M20.6466 2.74278C20.147 2.24294 19.5538 1.84643 18.9009 1.5759C18.248 1.30538 17.5482 1.16614 16.8415 1.16614C16.1348 1.16614 15.435 1.30538 14.7821 1.5759C14.1292 1.84643 13.536 2.24294 13.0364 2.74278L11.9995 3.77964L10.9627 2.74278C9.95349 1.73361 8.58476 1.16666 7.15757 1.16666C5.73039 1.16666 4.36166 1.73361 3.35249 2.74278C2.34331 3.75195 1.77637 5.12068 1.77637 6.54787C1.77637 7.97505 2.34331 9.34378 3.35249 10.353L4.38935 11.3898L11.9995 19L19.6097 11.3898L20.6466 10.353C21.1464 9.85335 21.5429 9.26015 21.8134 8.60726C22.084 7.95438 22.2232 7.25458 22.2232 6.54787C22.2232 5.84115 22.084 5.14136 21.8134 4.48847C21.5429 3.83558 21.1464 3.24239 20.6466 2.74278V2.74278Z" stroke="#CBA769" stroke-width="2" stroke-linecap="round" stroke-linejoin="round"/>
</svg>
