<svg width="24" height="24" viewBox="0 0 24 24" fill="none" xmlns="http://www.w3.org/2000/svg">
<path d="M9.5248 3.57205L10.4268 5.57805C10.6623 6.10186 10.7278 6.68623 10.6143 7.24919C10.5008 7.81215 10.2139 8.32544 9.7938 8.71705L8.29981 10.1101C8.25613 10.1508 8.22847 10.2057 8.22181 10.2651C8.1778 10.6621 8.44681 11.4351 9.06681 12.5101C9.51781 13.2911 9.92681 13.8401 10.2738 14.1471C10.5158 14.3621 10.6488 14.4081 10.7058 14.3921L12.7158 13.7771C13.2649 13.6089 13.8528 13.6169 14.3971 13.7998C14.9414 13.9827 15.4147 14.3315 15.7508 14.7971L17.0308 16.5731C17.4204 17.1131 17.6007 17.7762 17.5384 18.4392C17.476 19.1022 17.1752 19.7201 16.6918 20.1781L15.8058 21.0181C15.3356 21.4634 14.758 21.7793 14.1294 21.9351C13.5008 22.0909 12.8426 22.0812 12.2188 21.9071C9.46481 21.1381 6.9958 18.8141 4.7838 14.9831C2.5688 11.1471 1.7918 7.84305 2.5078 5.07005C2.65983 4.48204 2.95239 3.93975 3.36035 3.48981C3.76831 3.03988 4.27944 2.69576 4.8498 2.48705L5.05581 2.41805L6.22281 2.06705C6.86209 1.87428 7.54969 1.92068 8.15728 2.19761C8.76486 2.47454 9.25094 2.96308 9.5248 3.57205ZM6.65581 3.50205L5.4888 3.85505L5.3308 3.90905C4.99661 4.03773 4.69796 4.24433 4.45968 4.51165C4.2214 4.77898 4.05037 5.09933 3.9608 5.44605C3.35781 7.77705 4.04681 10.7061 6.08281 14.2331C8.11581 17.7551 10.3048 19.8151 12.6228 20.4631C12.9969 20.5673 13.3917 20.5728 13.7686 20.4793C14.1455 20.3857 14.4918 20.1961 14.7738 19.9291L15.6608 19.0891C15.8806 18.8808 16.0174 18.5999 16.0457 18.2985C16.074 17.997 15.992 17.6956 15.8148 17.4501L14.5348 15.6751C14.3821 15.4633 14.1668 15.3046 13.9193 15.2214C13.6718 15.1382 13.4045 15.1346 13.1548 15.2111L11.1398 15.8281C9.96981 16.1761 8.9078 15.2351 7.76781 13.2601C6.9998 11.9301 6.6418 10.9001 6.7308 10.0991C6.7778 9.68305 6.97081 9.29905 7.2768 9.01305L8.7708 7.62005C8.96183 7.44207 9.09232 7.20874 9.14397 6.95281C9.19563 6.69688 9.16584 6.43119 9.0588 6.19305L8.1568 4.18705C8.03232 3.91046 7.81152 3.68857 7.53555 3.56272C7.25957 3.43688 6.94726 3.41567 6.65681 3.50305L6.65581 3.50205ZM14.7478 2.00205H21.2638C21.2898 2.00105 21.3148 2.00205 21.3408 2.00605L21.4028 2.01605L21.4978 2.04305L21.5858 2.08005L21.6538 2.12005C21.7443 2.17767 21.8214 2.25406 21.8798 2.34405L21.9218 2.41805L21.9638 2.52205L21.9878 2.61905L21.9978 2.71905L21.9998 9.25705C22.0015 9.44833 21.93 9.63302 21.8 9.77334C21.67 9.91365 21.4913 9.99899 21.3004 10.0119C21.1096 10.0248 20.921 9.96429 20.7733 9.84275C20.6256 9.7212 20.5299 9.54782 20.5058 9.35805L20.4998 9.25705V4.56005L14.2798 10.7841C14.1528 10.9113 13.9842 10.9887 13.8049 11.0021C13.6255 11.0155 13.4474 10.964 13.3028 10.8571L13.2188 10.7841C13.0918 10.6571 13.0146 10.4887 13.0012 10.3096C12.9878 10.1305 13.0391 9.95252 13.1458 9.80805L13.2188 9.72405L19.4388 3.50005H14.7478C14.5666 3.50005 14.3915 3.43441 14.2549 3.31529C14.1183 3.19616 14.0295 3.03161 14.0048 2.85205L13.9978 2.75105C13.9978 2.55214 14.0768 2.36138 14.2175 2.22072C14.3581 2.08007 14.5489 2.00105 14.7478 2.00105V2.00205Z" fill="#828282"/>
</svg>
