<svg width="54" height="54" viewBox="0 0 54 54" fill="none" xmlns="http://www.w3.org/2000/svg">
<g filter="url(#filter0_d)">
<rect x="8.5" y="5.5" width="33" height="33" rx="9.5" fill="white" stroke="#E0E0E0"/>
<rect width="24" height="24" transform="translate(13 10)" fill="white"/>
<path d="M19.2991 14.3967C19.4055 14.2723 19.5376 14.1724 19.6863 14.1039C19.835 14.0354 19.9967 14 20.1604 14H29.8391C30.0028 14 30.1646 14.0354 30.3133 14.1039C30.4619 14.1724 30.594 14.2723 30.7004 14.3967L33.6573 17.8465C33.9213 18.1546 34.0664 18.5469 34.0664 18.9527V19.2417C34.0665 19.8026 33.8913 20.3496 33.5653 20.8061C33.2393 21.2627 32.7788 21.6059 32.2482 21.788C31.7176 21.97 31.1434 21.9817 30.6058 21.8214C30.0682 21.6612 29.5941 21.3369 29.2498 20.8941C28.9983 21.2179 28.6761 21.48 28.3078 21.6601C27.9395 21.8402 27.5348 21.9337 27.1248 21.9333C26.7147 21.9338 26.31 21.8404 25.9417 21.6602C25.5734 21.4801 25.2512 21.218 24.9998 20.8941C24.7484 21.218 24.4262 21.4801 24.0578 21.6602C23.6895 21.8404 23.2848 21.9338 22.8748 21.9333C22.4647 21.9338 22.06 21.8404 21.6917 21.6602C21.3234 21.4801 21.0012 21.218 20.7498 20.8941C20.4055 21.3369 19.9314 21.6612 19.3938 21.8214C18.8562 21.9817 18.282 21.97 17.7513 21.788C17.2207 21.6059 16.7602 21.2627 16.4342 20.8061C16.1083 20.3496 15.933 19.8026 15.9331 19.2417V18.9527C15.9331 18.5469 16.0782 18.1546 16.3422 17.8465L19.3002 14.3955L19.2991 14.3967ZM21.3164 19.2417C21.3164 19.655 21.4806 20.0513 21.7729 20.3436C22.0651 20.6358 22.4615 20.8 22.8748 20.8C23.2881 20.8 23.6844 20.6358 23.9767 20.3436C24.2689 20.0513 24.4331 19.655 24.4331 19.2417C24.4331 19.0914 24.4928 18.9472 24.5991 18.841C24.7053 18.7347 24.8495 18.675 24.9998 18.675C25.1501 18.675 25.2942 18.7347 25.4005 18.841C25.5067 18.9472 25.5664 19.0914 25.5664 19.2417C25.5664 19.655 25.7306 20.0513 26.0229 20.3436C26.3151 20.6358 26.7115 20.8 27.1248 20.8C27.5381 20.8 27.9344 20.6358 28.2267 20.3436C28.5189 20.0513 28.6831 19.655 28.6831 19.2417C28.6831 19.0914 28.7428 18.9472 28.8491 18.841C28.9553 18.7347 29.0995 18.675 29.2498 18.675C29.4001 18.675 29.5442 18.7347 29.6505 18.841C29.7567 18.9472 29.8164 19.0914 29.8164 19.2417C29.8164 19.655 29.9806 20.0513 30.2729 20.3436C30.5651 20.6358 30.9615 20.8 31.3748 20.8C31.7881 20.8 32.1844 20.6358 32.4767 20.3436C32.7689 20.0513 32.9331 19.655 32.9331 19.2417V18.9527C32.9331 18.8176 32.8849 18.687 32.7971 18.5843L29.8391 15.1333H20.1604L17.2024 18.5843C17.1147 18.687 17.0664 18.8176 17.0664 18.9527V19.2417C17.0664 19.655 17.2306 20.0513 17.5229 20.3436C17.8151 20.6358 18.2115 20.8 18.6248 20.8C19.0381 20.8 19.4344 20.6358 19.7267 20.3436C20.0189 20.0513 20.1831 19.655 20.1831 19.2417C20.1831 19.0914 20.2428 18.9472 20.3491 18.841C20.4553 18.7347 20.5995 18.675 20.7498 18.675C20.9001 18.675 21.0442 18.7347 21.1505 18.841C21.2567 18.9472 21.3164 19.0914 21.3164 19.2417ZM17.6331 22.5C17.7834 22.5 17.9275 22.5597 18.0338 22.666C18.1401 22.7722 18.1998 22.9164 18.1998 23.0667V29.8667H31.7998V23.0667C31.7998 22.9164 31.8595 22.7722 31.9657 22.666C32.072 22.5597 32.2162 22.5 32.3664 22.5C32.5167 22.5 32.6609 22.5597 32.7671 22.666C32.8734 22.7722 32.9331 22.9164 32.9331 23.0667V29.8667H33.4998C33.6501 29.8667 33.7942 29.9264 33.9005 30.0326C34.0067 30.1389 34.0664 30.283 34.0664 30.4333C34.0664 30.5836 34.0067 30.7278 33.9005 30.834C33.7942 30.9403 33.6501 31 33.4998 31H16.4998C16.3495 31 16.2053 30.9403 16.0991 30.834C15.9928 30.7278 15.9331 30.5836 15.9331 30.4333C15.9331 30.283 15.9928 30.1389 16.0991 30.0326C16.2053 29.9264 16.3495 29.8667 16.4998 29.8667H17.0664V23.0667C17.0664 22.9164 17.1261 22.7722 17.2324 22.666C17.3387 22.5597 17.4828 22.5 17.6331 22.5ZM19.8998 23.0667C20.0501 23.0667 20.1942 23.1264 20.3005 23.2326C20.4067 23.3389 20.4664 23.483 20.4664 23.6333V27.6H29.5331V23.6333C29.5331 23.483 29.5928 23.3389 29.6991 23.2326C29.8053 23.1264 29.9495 23.0667 30.0998 23.0667C30.2501 23.0667 30.3942 23.1264 30.5005 23.2326C30.6067 23.3389 30.6664 23.483 30.6664 23.6333V27.6C30.6664 27.9006 30.547 28.1888 30.3345 28.4014C30.122 28.6139 29.8337 28.7333 29.5331 28.7333H20.4664C20.1659 28.7333 19.8776 28.6139 19.6651 28.4014C19.4525 28.1888 19.3331 27.9006 19.3331 27.6V23.6333C19.3331 23.483 19.3928 23.3389 19.4991 23.2326C19.6053 23.1264 19.7495 23.0667 19.8998 23.0667Z" fill="#AAC938"/>
</g>
<defs>
<filter id="filter0_d" x="0" y="0" width="54" height="54" filterUnits="userSpaceOnUse" color-interpolation-filters="sRGB">
<feFlood flood-opacity="0" result="BackgroundImageFix"/>
<feColorMatrix in="SourceAlpha" type="matrix" values="0 0 0 0 0 0 0 0 0 0 0 0 0 0 0 0 0 0 127 0" result="hardAlpha"/>
<feOffset dx="2" dy="5"/>
<feGaussianBlur stdDeviation="5"/>
<feComposite in2="hardAlpha" operator="out"/>
<feColorMatrix type="matrix" values="0 0 0 0 0.179167 0 0 0 0 0.179167 0 0 0 0 0.179167 0 0 0 0.15 0"/>
<feBlend mode="normal" in2="BackgroundImageFix" result="effect1_dropShadow"/>
<feBlend mode="normal" in="SourceGraphic" in2="effect1_dropShadow" result="shape"/>
</filter>
</defs>
</svg>
