<svg width="23" height="22" viewBox="0 0 23 22" fill="none" xmlns="http://www.w3.org/2000/svg">
<path d="M7.37093 5.65909C7.95302 5.65909 8.49966 5.4317 8.9109 5.01894C9.75972 4.16601 9.75972 2.7775 8.9109 1.92457C8.49966 1.51135 7.95256 1.28442 7.37093 1.28442C6.78929 1.28442 6.24219 1.51181 5.83095 1.92457C4.98213 2.77796 4.98213 4.16601 5.83095 5.01894C6.24219 5.43125 6.78884 5.65909 7.37093 5.65909ZM6.34443 2.43962C6.61843 2.16429 6.98332 2.0127 7.37138 2.0127C7.75899 2.0127 8.12387 2.16429 8.39788 2.43962C8.96406 3.00854 8.96406 3.93406 8.39788 4.50253C7.84987 5.05318 6.89244 5.05318 6.34443 4.50253C5.77824 3.93406 5.77824 3.00854 6.34443 2.43962Z" fill="#CBA769"/>
<path d="M3.26579 10.878C4.13825 10.878 4.95845 10.536 5.57507 9.91685C5.93768 9.55249 6.2026 9.11507 6.36073 8.64021L10.4581 12.7578C10.4617 12.7615 10.4626 12.766 10.4658 12.7692C10.469 12.7729 10.474 12.7742 10.4776 12.777L11.1451 13.4477L5.00525 19.6187C5.00525 19.6187 5.00525 19.6191 5.00479 19.6191C4.65127 19.9743 4.65081 20.5524 5.00389 20.9072C5.17565 21.0798 5.40331 21.1747 5.64641 21.1747C5.88906 21.1747 6.11626 21.0798 6.28803 20.9081C6.28803 20.9076 6.28848 20.9076 6.28848 20.9076L6.28894 20.9072L12.4279 14.7358L17.7753 20.109C17.7762 20.1104 17.7781 20.1104 17.7794 20.1118C17.7835 20.1168 17.7849 20.1227 17.7894 20.1273C18.2434 20.5839 18.8173 20.8195 19.4503 20.8195C19.6847 20.8195 19.9274 20.7871 20.175 20.7213C20.3014 20.688 20.4 20.5894 20.4336 20.462C20.6753 19.5424 20.4649 18.6908 19.8424 18.0648C19.8397 18.0621 19.8356 18.0607 19.8329 18.0585C19.8301 18.0553 19.8292 18.0511 19.8265 18.0489L14.4777 12.6752L22.0935 5.01893C22.0994 5.0139 22.1067 5.01208 22.1122 5.0066C22.3866 4.73081 22.5379 4.36462 22.5379 3.97469C22.5384 3.58475 22.3871 3.2181 22.1122 2.94186C22.1085 2.93867 22.104 2.9373 22.1008 2.9341L19.2917 0.106844C19.2208 0.0351581 19.1276 0 19.0345 0C18.9981 0 18.9622 0.0100452 18.9263 0.0210035C18.9172 0.0241997 18.9068 0.0228299 18.8982 0.0269393C18.8932 0.0287657 18.8895 0.0333317 18.885 0.0356147C18.8464 0.053422 18.8096 0.0748821 18.7782 0.106844C18.7782 0.106844 18.7782 0.107301 18.7777 0.107301L18.0062 0.882604C17.8644 1.02506 17.8644 1.25564 18.0062 1.3981L20.5695 3.97332L20.3127 4.23084L17.7494 1.65517C17.6077 1.51271 17.3782 1.51271 17.2364 1.65517C17.0946 1.79763 17.0946 2.02867 17.2364 2.17067L19.7997 4.74634L19.5434 5.00477L16.9797 2.4291C16.8379 2.28664 16.6084 2.28664 16.4667 2.4291C16.3249 2.57156 16.3249 2.8026 16.4667 2.9446L19.0299 5.52027L18.7732 5.77825L16.2099 3.20258C16.0681 3.06012 15.8387 3.06012 15.6969 3.20258C15.5551 3.34504 15.5551 3.57562 15.6969 3.71808L18.2602 6.29375L18.003 6.55218L15.4397 3.9756C15.2979 3.83314 15.0685 3.83314 14.9267 3.9756C14.7849 4.11806 14.7849 4.34864 14.9267 4.49156L17.49 7.06768L17.2337 7.32566L14.6699 4.74999C14.5282 4.60753 14.2987 4.60753 14.1569 4.74999C14.0151 4.89245 14.0151 5.12349 14.1569 5.26549L16.7207 7.84116L16.4644 8.09914L13.9006 5.52347C13.7589 5.38101 13.5294 5.38101 13.3876 5.52347C13.2458 5.66593 13.2458 5.89696 13.3876 6.03897L15.9514 8.61464L15.6946 8.87307L13.1313 6.29694C12.9896 6.15449 12.7601 6.15449 12.6183 6.29694C12.4761 6.4394 12.4761 6.67044 12.6183 6.8129L15.1816 9.38857L14.9253 9.64655L12.3629 7.07088L12.362 7.06996C12.2203 6.92751 11.9908 6.92751 11.849 7.06996C11.8467 7.0727 11.8458 7.0759 11.8431 7.07818C11.2846 7.64802 11.286 8.56715 11.849 9.13379L13.6448 10.9374L13.1977 11.3866L8.41282 6.58003C8.88494 6.42068 9.31844 6.15586 9.6806 5.79195C10.9538 4.5121 10.9538 2.43001 9.6806 1.15063C9.06352 0.530567 8.24287 0.189032 7.37087 0.189032C6.49887 0.189032 5.67822 0.530567 5.06114 1.15017C4.16915 2.04784 3.90468 3.33864 4.26366 4.47146C3.94513 4.36964 3.61023 4.3144 3.26625 4.3144C2.39379 4.3144 1.5736 4.65593 0.956973 5.27553C0.339893 5.89559 0 6.71975 0 7.59642C0 8.47309 0.339893 9.29725 0.956973 9.91731C1.57314 10.5365 2.39334 10.878 3.26579 10.878ZM10.7248 11.9935L6.52386 7.77221C6.52659 7.71377 6.53204 7.65532 6.53204 7.59597C6.53204 7.47953 6.52477 7.36401 6.51296 7.24986L10.9793 11.7373L10.7248 11.9935ZM5.77501 20.3921C5.72866 20.4387 5.67458 20.4455 5.64641 20.4455C5.61824 20.4455 5.56416 20.4382 5.51782 20.3926C5.44738 20.3214 5.44738 20.2058 5.51782 20.1351C5.51782 20.1351 5.51782 20.1351 5.51782 20.1346H5.51827L11.6586 13.9632L11.9144 14.2203L5.77501 20.3921ZM12.3607 8.61783C12.1716 8.42789 12.1117 8.15849 12.1757 7.91513L14.6668 10.4191C14.7372 10.4903 14.8303 10.526 14.9235 10.526C15.0162 10.526 15.1094 10.4903 15.1798 10.4191L15.9482 9.647C15.9486 9.64655 15.9491 9.64655 15.9495 9.64609C15.95 9.64563 15.95 9.64518 15.9505 9.64518L19.0272 6.5531C19.0281 6.55218 19.0286 6.55218 19.0295 6.55173C19.0304 6.55081 19.0304 6.55036 19.0308 6.54944L19.7983 5.77825C19.7988 5.77779 19.7992 5.77779 19.7992 5.77779C19.7997 5.77734 19.7997 5.77688 19.8002 5.77688L21.3388 4.23084C21.4805 4.08838 21.4805 3.8578 21.3388 3.71534L18.7755 1.14013L19.034 0.880321L21.5964 3.45873C21.5991 3.46101 21.6023 3.46147 21.6046 3.46421C21.7386 3.6021 21.8123 3.78246 21.8123 3.97423C21.8123 4.16463 21.7391 4.34316 21.6078 4.48014C21.6041 4.48334 21.5996 4.48471 21.5955 4.48836L13.9647 12.1592L13.7093 11.9026L14.4087 11.1999C14.4455 11.1625 14.4718 11.1195 14.4895 11.0739C14.5436 10.9419 14.5177 10.7844 14.4109 10.6771L12.3607 8.61783ZM13.7075 12.9322C13.708 12.9322 13.708 12.9327 13.7075 12.9322C13.708 12.9327 13.7084 12.9327 13.7084 12.9331L19.3126 18.5644C19.3158 18.5671 19.3194 18.5685 19.3226 18.5708C19.3253 18.574 19.3262 18.5781 19.3289 18.5803C19.8029 19.0575 19.8506 19.6187 19.777 20.0625C19.3353 20.1355 18.7768 20.0885 18.3024 19.6118C18.3015 19.6109 18.2993 19.6104 18.2984 19.6091C18.2943 19.604 18.2924 19.5981 18.2884 19.5935L11.2378 12.5094L11.7318 12.0136C11.7381 12.0076 11.7468 12.0058 11.7527 11.9994C11.8945 11.8569 11.8945 11.6264 11.7527 11.4839L7.02643 6.73436C7.14003 6.74669 7.25545 6.75309 7.37087 6.75309C7.43085 6.75309 7.49038 6.74761 7.5499 6.74441L13.7075 12.9322ZM5.57462 1.66613C6.05446 1.18396 6.69245 0.918675 7.37132 0.918675C8.04975 0.918675 8.68773 1.18396 9.16758 1.66613C10.1577 2.66151 10.1577 4.28106 9.16758 5.27599C8.68773 5.75816 8.04975 6.02344 7.37132 6.02344C6.69608 6.02344 6.06174 5.76044 5.58234 5.28284C5.57961 5.28056 5.5778 5.27782 5.57507 5.27508C5.5728 5.27279 5.57007 5.27051 5.56734 5.26823C4.58447 4.27284 4.58674 2.65923 5.57462 1.66613ZM1.46954 5.79103C1.94893 5.30887 2.58692 5.04313 3.26579 5.04313C3.94104 5.04313 4.57538 5.30658 5.05478 5.78373C5.05705 5.78601 5.05887 5.78875 5.06159 5.79149C5.06432 5.79377 5.06705 5.7956 5.06932 5.79834C5.54417 6.27959 5.80636 6.91746 5.80636 7.59551C5.80636 8.27767 5.5419 8.91827 5.06205 9.4009C4.58265 9.88261 3.94467 10.1483 3.26579 10.1483C2.58692 10.1483 1.94893 9.88261 1.46954 9.4009C0.990144 8.91919 0.725227 8.27767 0.725227 7.59551C0.725227 6.91472 0.990144 6.2732 1.46954 5.79103Z" fill="#CBA769"/>
<path d="M3.26598 9.78355C3.84807 9.78355 4.39426 9.55616 4.8055 9.14339C5.65432 8.29047 5.65432 6.90241 4.8055 6.04948C4.39426 5.63626 3.84762 5.40887 3.26598 5.40887C2.68434 5.40887 2.1377 5.63626 1.72646 6.04948C0.877638 6.90287 0.877638 8.29092 1.72646 9.14339C2.1377 9.55616 2.68434 9.78355 3.26598 9.78355ZM2.23948 6.56498C2.51349 6.28965 2.87792 6.13806 3.26598 6.13806C3.65358 6.13806 4.01802 6.28965 4.29248 6.56498C4.85866 7.13345 4.85866 8.05943 4.29248 8.62789C3.74447 9.17855 2.78795 9.17855 2.23994 8.62789C1.67375 8.05852 1.67375 7.13345 2.23948 6.56498Z" fill="#CBA769"/>
<path d="M12.5344 13.1377C12.7347 13.1377 12.8974 12.9747 12.8974 12.7733C12.8974 12.5715 12.7347 12.4085 12.5344 12.4085H12.5303C12.3299 12.4085 12.1699 12.5715 12.1699 12.7733C12.1695 12.9747 12.334 13.1377 12.5344 13.1377Z" fill="#CBA769"/>
</svg>
