<svg width="26" height="26" viewBox="0 0 26 26" fill="none" xmlns="http://www.w3.org/2000/svg">
<path d="M11.8064 22.3009C11.4271 22.303 11.0638 22.1522 10.797 21.8827C10.2475 21.3221 10.2475 20.4245 10.797 19.8639L19.8634 10.7975C20.424 10.248 21.3216 10.248 21.8822 10.7975C22.4317 11.3581 22.4317 12.2557 21.8822 12.8163L12.8158 21.8827C12.549 22.1508 12.185 22.3016 11.8064 22.3009ZM20.8721 11.1004C20.6859 11.1018 20.5074 11.1761 20.3747 11.306L11.3048 20.3752C11.0374 20.6545 11.0374 21.0949 11.3048 21.3735C11.5841 21.6416 12.0245 21.6416 12.3038 21.3735L21.3737 12.3036C21.6418 12.025 21.6418 11.5839 21.3737 11.3046C21.2396 11.1747 21.0597 11.1011 20.8721 11.1004Z" fill="#CBA769"/>
<path d="M10.7861 20.3829L9.85594 19.4527C8.58049 18.1821 7.86427 16.4551 7.86635 14.6544C7.86704 14.1029 7.93373 13.5534 8.06503 13.0177C8.37834 11.777 8.06503 10.4613 7.22515 9.49567L0.234484 1.49284C-0.0878521 1.14202 -0.076737 0.598075 0.260882 0.26115C0.597807 -0.0764693 1.14175 -0.088279 1.49257 0.234752L9.4954 7.22472C10.452 8.06252 11.758 8.3793 12.9918 8.07155C15.3093 7.49357 17.7594 8.17089 19.4517 9.85621L20.3819 10.7864L19.8734 11.2984L18.9397 10.3647C17.4267 8.8635 15.2405 8.25981 13.1717 8.7711C11.7108 9.14207 10.1609 8.7718 9.02579 7.77978L1.02087 0.779389C0.859705 0.618221 0.618648 0.859973 0.779121 1.02114L7.77951 9.02744C8.76806 10.1737 9.13694 11.7298 8.76736 13.1984C8.24565 15.2678 8.85211 17.4596 10.3645 18.9664L11.2981 19.9L10.7861 20.3829Z" fill="#CBA769"/>
<path d="M21.1016 13.0824L21.6115 12.5724L25.1412 16.1022L24.6313 16.6121L21.1016 13.0824Z" fill="#CBA769"/>
<path d="M19.6786 14.5058L20.1885 13.9959L23.7161 17.5228L23.2062 18.0327L19.6786 14.5058Z" fill="#CBA769"/>
<path d="M18.2574 15.9257L18.7673 15.4158L22.295 18.9428L21.7851 19.4527L18.2574 15.9257Z" fill="#CBA769"/>
<path d="M16.8348 17.3491L17.3447 16.8392L20.8717 20.3662L20.3618 20.8761L16.8348 17.3491Z" fill="#CBA769"/>
<path d="M15.4142 18.7663L15.9241 18.2564L19.451 21.7833L18.9411 22.2932L15.4142 18.7663Z" fill="#CBA769"/>
<path d="M13.9907 20.196L14.5006 19.6861L18.0283 23.2137L17.5184 23.7236L13.9907 20.196Z" fill="#CBA769"/>
<path d="M12.5701 21.6125L13.08 21.1026L16.6076 24.6295L16.0977 25.1394L12.5701 21.6125Z" fill="#CBA769"/>
</svg>
