<svg width="25" height="21" viewBox="0 0 25 21" fill="none" xmlns="http://www.w3.org/2000/svg">
<g clip-path="url(#clip0)">
<path d="M2.05364 20.039C1.12596 19.401 0.673479 14.837 0.673479 14.837C0.673479 14.837 -0.101314 9.91928 0.0102562 8.90916C0.123893 7.89903 1.78505 6.47381 2.33464 6.57196C1.21893 4.98316 3.48753 4.38404 3.48753 4.38404C3.48753 4.38404 5.64455 2.45375 10.6322 1.40682C11.1074 1.37001 9.95447 0.922204 8.96274 0.791338C9.30984 0.116557 11.4834 1.25755 11.4834 1.25755C11.4834 1.25755 10.6177 0.339439 9.61563 0.0613473C9.90282 -0.229013 11.2251 0.607306 12.7127 1.16553C15.4297 2.18384 17.8656 2.08569 18.6797 3.20828C19.0743 3.65609 18.7251 4.47605 19.2912 4.55171C19.8594 4.62532 23.1487 5.52503 24.2086 8.72308C22.9751 7.33876 22.1074 7.39397 22.1074 7.39397C22.1074 7.39397 24.0123 9.54509 23.9751 11.1155C23.9648 11.7187 23.3574 12.189 22.8801 13.0437C22.1156 14.4096 21.3202 16.2091 21.1797 16.9881C20.9503 18.2641 20.6859 20.3538 20.1404 20.4336C19.5888 20.5072 19.6879 12.2381 19.7623 11.7167C19.9524 10.9499 16.4359 10.0501 16.4359 10.0501C16.4359 10.0501 19.0082 11.6778 18.3822 13.2298C17.7003 11.4324 16.7582 11.414 16.7582 11.414C16.7582 11.414 18.7437 15.1948 17.5681 15.9228C16.8904 11.6798 15.1487 10.7965 13.752 10.1626C12.3553 9.52464 9.30984 9.78842 7.53092 10.4407C5.75612 11.0971 3.92141 10.5757 3.92141 10.5757L4.2272 12.1829L3.37596 11.5081L3.20654 12.5366C3.20654 12.5366 3.75406 13.5099 3.67761 14.0723C3.13216 13.3975 2.88216 13.3975 2.88216 13.3975C2.88216 13.3975 3.35736 14.1663 3.15075 14.5773C2.88216 14.0354 2.43174 14.2215 2.43174 14.2215C2.43174 14.2215 2.61769 19.9837 2.05364 20.039Z" fill="#CBA769"/>
</g>
<defs>
<clipPath id="clip0">
<rect width="25" height="21" fill="white"/>
</clipPath>
</defs>
</svg>
