<svg width="24" height="24" viewBox="0 0 24 24" fill="none" xmlns="http://www.w3.org/2000/svg">
<path d="M19 12V5.33333C19 4.97971 18.8595 4.64057 18.6095 4.39052C18.3594 4.14048 18.0203 4 17.6667 4H4.33333C3.97971 4 3.64057 4.14048 3.39052 4.39052C3.14048 4.64057 3 4.97971 3 5.33333V18.6667C3 19.0203 3.14048 19.3594 3.39052 19.6095C3.64057 19.8595 3.97971 20 4.33333 20H11" stroke="#4F4F4F" stroke-width="1.5" stroke-linecap="round" stroke-linejoin="round"/>
<path d="M15 18C16.6569 18 18 16.8807 18 15.5C18 14.1193 16.6569 13 15 13C13.3431 13 12 14.1193 12 15.5C12 16.8807 13.3431 18 15 18Z" stroke="#4F4F4F" stroke-width="1.5"/>
<path d="M17 17L19 19" stroke="#4F4F4F" stroke-width="1.5" stroke-linecap="round" stroke-linejoin="round"/>
<path d="M7 8H16" stroke="#4F4F4F" stroke-width="1.5" stroke-linecap="round" stroke-linejoin="round"/>
<path d="M7 12H11" stroke="#4F4F4F" stroke-width="1.5" stroke-linecap="round" stroke-linejoin="round"/>
</svg>
