<svg width="46" height="46" viewBox="0 0 46 46" fill="none" xmlns="http://www.w3.org/2000/svg">
<path d="M17.25 15.8125V12.2188C17.25 11.2656 17.6286 10.3515 18.3026 9.67759C18.9765 9.00363 19.8906 8.625 20.8438 8.625H35.2188C36.1719 8.625 37.086 9.00363 37.7599 9.67759C38.4339 10.3515 38.8125 11.2656 38.8125 12.2188V33.7812C38.8125 34.7344 38.4339 35.6485 37.7599 36.3224C37.086 36.9964 36.1719 37.375 35.2188 37.375H21.5625C19.5779 37.375 17.25 35.7659 17.25 33.7812V30.1875" stroke="white" stroke-width="1.5" stroke-linecap="round" stroke-linejoin="round"/>
<path d="M25.875 30.1875L33.0625 23L25.875 15.8125" stroke="white" stroke-width="1.5" stroke-linecap="round" stroke-linejoin="round"/>
<path d="M7.1875 23H31.625" stroke="white" stroke-width="1.5" stroke-linecap="round" stroke-linejoin="round"/>
</svg>
