<svg width="25" height="24" viewBox="0 0 25 24" fill="none" xmlns="http://www.w3.org/2000/svg">
<path d="M2.07227 5.995C2.07227 5.445 2.53443 5 3.10334 5H11.4037C11.6772 5 11.9394 5.10483 12.1328 5.29143C12.3262 5.47803 12.4348 5.73111 12.4348 5.995C12.4348 6.25889 12.3262 6.51197 12.1328 6.69857C11.9394 6.88517 11.6772 6.99 11.4037 6.99H3.10334C2.82988 6.99 2.56762 6.88517 2.37426 6.69857C2.1809 6.51197 2.07227 6.25889 2.07227 5.995Z" fill="#4F4F4F"/>
<path d="M2.07227 11.9999C2.07227 11.4499 2.53443 11.0049 3.10334 11.0049H21.7663C22.0397 11.0049 22.302 11.1097 22.4953 11.2963C22.6887 11.4829 22.7973 11.736 22.7973 11.9999C22.7973 12.2638 22.6887 12.5169 22.4953 12.7035C22.302 12.8901 22.0397 12.9949 21.7663 12.9949H3.10334C2.82988 12.9949 2.56762 12.8901 2.37426 12.7035C2.1809 12.5169 2.07227 12.2638 2.07227 11.9999Z" fill="#4F4F4F"/>
<path d="M3.10334 17.01C2.82988 17.01 2.56762 17.1148 2.37426 17.3014C2.1809 17.488 2.07227 17.7411 2.07227 18.005C2.07227 18.2689 2.1809 18.522 2.37426 18.7086C2.56762 18.8952 2.82988 19 3.10334 19H15.5487C15.8222 19 16.0845 18.8952 16.2778 18.7086C16.4712 18.522 16.5798 18.2689 16.5798 18.005C16.5798 17.7411 16.4712 17.488 16.2778 17.3014C16.0845 17.1148 15.8222 17.01 15.5487 17.01H3.10334Z" fill="#4F4F4F"/>
</svg>
