<svg width="17" height="20" viewBox="0 0 17 20" fill="none" xmlns="http://www.w3.org/2000/svg">
<path d="M15.7273 8.36363C15.7273 14.0909 8.36364 19 8.36364 19C8.36364 19 1 14.0909 1 8.36363C1 6.41068 1.77581 4.53771 3.15676 3.15676C4.53771 1.77581 6.41068 1 8.36364 1C10.3166 1 12.1896 1.77581 13.5705 3.15676C14.9515 4.53771 15.7273 6.41068 15.7273 8.36363Z" stroke="#313345" stroke-width="2" stroke-linecap="round" stroke-linejoin="round"/>
<path d="M8.3636 10.8182C9.71921 10.8182 10.8181 9.71924 10.8181 8.36363C10.8181 7.00803 9.71921 5.90909 8.3636 5.90909C7.008 5.90909 5.90906 7.00803 5.90906 8.36363C5.90906 9.71924 7.008 10.8182 8.3636 10.8182Z" stroke="#313345" stroke-width="2" stroke-linecap="round" stroke-linejoin="round"/>
</svg>
