<svg width="13" height="17" viewBox="0 0 13 17" fill="none" xmlns="http://www.w3.org/2000/svg">
<path d="M12.875 7.08331C12.875 12.0416 6.5 16.2916 6.5 16.2916C6.5 16.2916 0.125 12.0416 0.125 7.08331C0.125 5.39256 0.79665 3.77105 1.99219 2.57551C3.18774 1.37996 4.80924 0.708313 6.5 0.708313C8.19075 0.708313 9.81226 1.37996 11.0078 2.57551C12.2033 3.77105 12.875 5.39256 12.875 7.08331Z" fill="white"/>
<path d="M6.5 9.20831C7.6736 9.20831 8.625 8.25692 8.625 7.08331C8.625 5.90971 7.6736 4.95831 6.5 4.95831C5.32639 4.95831 4.375 5.90971 4.375 7.08331C4.375 8.25692 5.32639 9.20831 6.5 9.20831Z" fill="#323345"/>
</svg>
