<svg width="24" height="16" viewBox="0 0 24 16" fill="none" xmlns="http://www.w3.org/2000/svg">
<path d="M2.44282 4.69186C2.44282 4.69186 1.51303 0.521899 11.0873 0C10.7875 0.146968 10.5318 0.371665 10.3472 0.651231C11.8617 0.223391 13.4428 0.0849147 15.0078 0.242334C14.5416 0.28871 14.1007 0.476829 13.7433 0.781869C13.7433 0.781869 17.0985 0.25801 19.5298 1.34622C18.982 1.35994 18.4479 1.52128 17.9817 1.8126C19.6574 1.96284 21.2184 2.73164 22.3664 3.9714C22.11 3.95049 21.8523 3.97531 21.6043 4.04521C22.4668 4.40185 23.2742 4.88325 24 5.47373C24 5.47373 22.1922 4.31236 21.785 5.02042C21.785 5.02042 23.0722 5.68537 22.975 9.21782C22.7419 11.4393 22.7167 13.2519 22.1391 15.6844C22.0841 15.9176 21.8199 16.0365 21.5868 15.9901C21.3382 15.9418 21.1673 15.7099 21.1925 15.4558C21.2838 14.5609 21.368 12.4883 20.492 10.8207C20.2951 10.4347 20.0776 10.0591 19.8406 9.69661C19.5091 9.25178 19.2702 8.7436 19.1381 8.20276C19.1381 8.20276 13.4862 9.03101 8.96876 8.48625C4.45194 7.94148 4.99647 7.35427 3.68403 7.22232C3.68403 7.22232 3.92684 8.61166 3.08447 9.56009C2.51987 10.2655 2.10159 11.0768 1.85231 11.9475C1.61728 13.1128 1.55318 14.3062 1.6626 15.4897C1.6762 15.704 1.54088 15.8993 1.33692 15.96C1.11678 16.0241 0.883037 15.913 0.79239 15.7007C0.268579 14.4597 -0.340052 10.372 0.228435 7.45225C0.448578 6.2445 0.417499 5.77877 1.48455 4.99886C1.74872 4.80617 2.11778 4.71081 2.44282 4.69186Z" fill="#CBA769"/>
</svg>
