<svg width="26" height="20" viewBox="0 0 26 20" fill="none" xmlns="http://www.w3.org/2000/svg">
<path d="M23.3536 7.98511C23.3536 7.98511 24.3609 0.554518 13.9887 0C14.3135 0.156153 14.5906 0.394894 14.7905 0.691932C13.1498 0.237353 11.4369 0.0902219 9.74155 0.257479C10.2466 0.306754 10.7243 0.506631 11.1115 0.830735C11.1115 0.830735 7.47661 0.274136 4.84271 1.43036C5.43613 1.44494 6.01482 1.61636 6.51985 1.92589C4.70453 2.08551 2.35402 2.68276 1.11037 4C1.38814 3.97779 2.32666 4.22377 2.59531 4.29803C1.661 4.67696 0.5 4.68416 0 7C0 7 1.95841 4.58188 2.39961 5.3342C2.39961 5.3342 1.00516 9.0407 1.11037 12.7939C1.36289 15.1543 1.39025 17.0802 2.01593 19.6647C2.07555 19.9124 2.36174 20.0387 2.61425 19.9895C2.88361 19.9381 3.06878 19.6917 3.04143 19.4218C2.94253 18.471 2.85134 16.2689 3.80038 14.497C4.01362 14.0869 4.2493 13.6878 4.50603 13.3026C4.86516 12.83 5.12399 12.2901 5.26709 11.7154C5.26709 11.7154 11.3899 12.5954 16.2838 12.0166C21.1771 11.4378 20.5872 10.8139 22.009 10.6737C22.009 10.6737 21.7459 12.1499 22.6585 13.1576C23.2701 13.9071 23.7233 14.7691 23.9933 15.6942C24.2479 16.9323 24.3174 18.2003 24.1988 19.4579C24.1841 19.6855 24.3307 19.893 24.5517 19.9576C24.7902 20.0256 25.0434 19.9076 25.1416 19.682C25.709 18.3634 26.3684 14.0203 25.7525 10.918C25.514 9.63478 25.5477 9.13995 24.3917 8.31129C24.1056 8.10656 23.7057 8.00523 23.3536 7.98511Z" fill="#CBA769"/>
</svg>
