<svg width="48" height="48" viewBox="0 0 48 48" fill="none" xmlns="http://www.w3.org/2000/svg">
<path d="M44 33.84V39.84C44.0022 40.397 43.8882 40.9483 43.665 41.4587C43.4419 41.969 43.1146 42.4272 42.7041 42.8037C42.2937 43.1803 41.8091 43.467 41.2815 43.6454C40.7538 43.8239 40.1947 43.8901 39.64 43.84C33.4857 43.1713 27.574 41.0683 22.38 37.7C17.5476 34.6293 13.4507 30.5323 10.38 25.7C6.99994 20.4824 4.89647 14.542 4.23999 8.36C4.19001 7.80693 4.25574 7.24952 4.43299 6.72324C4.61024 6.19697 4.89513 5.71337 5.26952 5.30324C5.64391 4.8931 6.0996 4.56541 6.60757 4.34104C7.11554 4.11666 7.66467 4.00052 8.21999 4H14.22C15.1906 3.99044 16.1316 4.33415 16.8675 4.96706C17.6035 5.59997 18.0841 6.47889 18.22 7.44C18.4732 9.36013 18.9429 11.2454 19.62 13.06C19.8891 13.7758 19.9473 14.5538 19.7878 15.3018C19.6283 16.0497 19.2577 16.7362 18.72 17.28L16.18 19.82C19.0271 24.8271 23.1729 28.9729 28.18 31.82L30.72 29.28C31.2638 28.7423 31.9503 28.3717 32.6982 28.2122C33.4462 28.0527 34.2241 28.1109 34.94 28.38C36.7545 29.0571 38.6399 29.5268 40.56 29.78C41.5315 29.9171 42.4188 30.4064 43.0531 31.155C43.6873 31.9036 44.0243 32.8591 44 33.84Z" stroke="black" stroke-width="3" stroke-linecap="round" stroke-linejoin="round"/>
</svg>
