<svg id="Capa_1" enable-background="new 0 0 512 512" height="512" viewBox="0 0 512 512" width="512" xmlns="http://www.w3.org/2000/svg"><g><g><g><g><path d="m12.475 36.052-12.475 7.644 87.345 145.684 33.889 17.648-13.426-100.554-37.38-96.018c-20.288 5.971-39.846 14.5-57.953 25.596z" fill="#ead597"/><path d="m141.639.007c-23.972.156-48.066 3.638-71.212 10.449l50.807 196.572 20.405 10.626 13.108-113.606z" fill="#d7ba88"/></g><g><path d="m141.639.007v217.648l22.88-10.853 37.816-94.035 12.939-102.337c-23.592-7.11-48.547-10.587-73.635-10.423z" fill="#c3a17b"/><path d="m285.695 45.754-11.901-7.96c-17.877-11.958-37.666-21.08-58.519-27.364l-50.755 196.372 31.414-17.422z" fill="#af866d"/></g></g><g><path d="m87.345 189.38v89.474l54.294 27.983 17.071-69.358-17.071-48.099z" fill="#fff0a5"/><path d="m141.639 189.38v117.457l54.294-27.983v-89.474z" fill="#fedb7c"/></g><g><path d="m87.345 278.854v178.847c0 29.938 24.356 54.294 54.294 54.294l22.88-118.004-22.88-115.137z" fill="#865050"/><path d="m141.639 278.854v233.141c29.938 0 54.294-24.356 54.294-54.294v-178.847z" fill="#624a4f"/></g></g><g><g><path d="m231.281 311.635c0 77.125 62.53 139.913 139.554 140.35l31.001-132.143-31.001-148.556c-77.025.436-139.554 63.224-139.554 140.349z" fill="#f69"/><path d="m371.641 171.275c-.269 0-.537.009-.806.01v280.699c.269.001.536.01.806.01 77.395 0 140.359-62.965 140.359-140.36s-62.965-140.359-140.359-140.359z" fill="#f37"/></g><g><path d="m282.519 311.635c0 48.873 39.544 88.677 88.316 89.112l31.001-89.112-31.001-89.112c-48.772.435-88.316 40.239-88.316 89.112z" fill="#faf9ff"/></g><g><path d="m229.67 462.399v2.691c0 25.866 21.043 46.909 46.909 46.909h94.256l21.464-27.555-21.464-34.413z" fill="#f37"/><path d="m376.659 449.52-5.824.51v61.968h94.256c25.866 0 46.909-21.043 46.909-46.909v-2.691z" fill="#e50070"/></g><g><path d="m229.67 421.995v40.404h141.165l21.464-20.202-21.464-20.202z" fill="#fdcbc5"/><path d="m370.835 421.995h141.165v40.405h-141.165z" fill="#fdbeb6"/></g><path d="m371.64 222.512c-.269 0-.537.008-.805.01v178.224c.269.002.536.01.805.01 49.142 0 89.122-39.98 89.122-89.122 0-49.141-39.98-89.122-89.122-89.122z" fill="#ece6ea"/></g></g></svg>