<svg width="34" height="34" viewBox="0 0 34 34" fill="none" xmlns="http://www.w3.org/2000/svg">
<path d="M9 9H15V15H9V9ZM25 9V15H19V9H25ZM19 20H21V18H19V16H21V18H23V16H25V18H23V20H25V23H23V25H21V23H18V25H16V21H19V20ZM21 20V23H23V20H21ZM9 25V19H15V25H9ZM11 11V13H13V11H11ZM21 11V13H23V11H21ZM11 21V23H13V21H11ZM9 16H11V18H9V16ZM14 16H18V20H16V18H14V16ZM16 11H18V15H16V11ZM7 7V11H5V7C5 6.46957 5.21071 5.96086 5.58579 5.58579C5.96086 5.21071 6.46957 5 7 5H11V7H7ZM27 5C27.5304 5 28.0391 5.21071 28.4142 5.58579C28.7893 5.96086 29 6.46957 29 7V11H27V7H23V5H27ZM7 23V27H11V29H7C6.46957 29 5.96086 28.7893 5.58579 28.4142C5.21071 28.0391 5 27.5304 5 27V23H7ZM27 27V23H29V27C29 27.5304 28.7893 28.0391 28.4142 28.4142C28.0391 28.7893 27.5304 29 27 29H23V27H27Z" fill="#AAC938"/>
</svg>
