<svg width="24" height="24" viewBox="0 0 24 24" fill="none" xmlns="http://www.w3.org/2000/svg">
<path d="M19 16H12C11.7187 16 11.4818 15.9036 11.2891 15.7109C11.0964 15.5182 11 15.2812 11 15C11 14.7188 11.0964 14.4818 11.2891 14.2891C11.4818 14.0964 11.7187 14 12 14H19C19.2812 14 19.5182 14.0964 19.7109 14.2891C19.9036 14.4818 20 14.7188 20 15C20 15.2812 19.9036 15.5182 19.7109 15.7109C19.5182 15.9036 19.2812 16 19 16ZM19 10H12C11.7187 10 11.4818 9.90104 11.2891 9.70312C11.0964 9.50521 11 9.26823 11 8.99219C11 8.71615 11.0964 8.48177 11.2891 8.28906C11.4818 8.09635 11.7187 8 12 8H19C19.2812 8 19.5182 8.09635 19.7109 8.28906C19.9036 8.48177 20 8.71615 20 8.99219C20 9.26823 19.9036 9.50521 19.7109 9.70312C19.5182 9.90104 19.2812 10 19 10ZM19 6H12C11.7187 6 11.4818 5.90104 11.2891 5.70312C11.0964 5.50521 11 5.26823 11 4.99219C11 4.71615 11.0964 4.48177 11.2891 4.28906C11.4818 4.09635 11.7187 4 12 4H19C19.2812 4 19.5182 4.09635 19.7109 4.28906C19.9036 4.48177 20 4.71615 20 4.99219C20 5.26823 19.9036 5.50521 19.7109 5.70312C19.5182 5.90104 19.2812 6 19 6ZM9 20H5C4.71875 20 4.48177 19.9036 4.28906 19.7109C4.09635 19.5182 4 19.2812 4 19V15C4 14.7188 4.09635 14.4818 4.28906 14.2891C4.48177 14.0964 4.71875 14 5 14H9C9.27083 14 9.50521 14.0964 9.70312 14.2891C9.90104 14.4818 10 14.7188 10 15V19C10 19.2812 9.90104 19.5182 9.70312 19.7109C9.50521 19.9036 9.27083 20 9 20ZM9 10H5C4.71875 10 4.48177 9.90104 4.28906 9.70312C4.09635 9.50521 4 9.27083 4 9V5C4 4.71875 4.09635 4.48177 4.28906 4.28906C4.48177 4.09635 4.71875 4 5 4H9C9.27083 4 9.50521 4.09635 9.70312 4.28906C9.90104 4.48177 10 4.71875 10 5V9C10 9.27083 9.90104 9.50521 9.70312 9.70312C9.50521 9.90104 9.27083 10 9 10ZM12 18H19C19.2812 18 19.5182 18.0964 19.7109 18.2891C19.9036 18.4818 20 18.7188 20 19C20 19.2812 19.901 19.5182 19.7031 19.7109C19.5052 19.9036 19.2708 20 19 20H12C11.7187 20 11.4818 19.9036 11.2891 19.7109C11.0964 19.5182 11 19.2812 11 19C11 18.7188 11.0964 18.4818 11.2891 18.2891C11.4818 18.0964 11.7187 18 12 18Z" fill="#828282"/>
</svg>
