<svg width="54" height="54" viewBox="0 0 54 54" fill="none" xmlns="http://www.w3.org/2000/svg">
<g filter="url(#filter0_d)">
<rect x="8.5" y="5.5" width="33" height="33" rx="9.5" fill="white" stroke="#E0E0E0"/>
<rect width="24" height="24" transform="translate(13 10)" fill="white"/>
<path d="M20.5 12.25C18.8537 12.25 17.6522 13.4538 16.9607 14.875C16.27 16.2962 15.9707 18.01 16 19.516C16.0352 21.265 16.7972 23.0312 16.7972 23.0312L17.0072 23.5H23.3125L23.4767 22.9375C23.4767 22.9375 24.0685 20.7318 24.2267 18.625C24.2882 17.7962 24.262 16.3548 23.8045 14.992C23.5765 14.3095 23.245 13.642 22.7027 13.117C22.162 12.5928 21.391 12.25 20.5 12.25ZM29.5 12.25C28.609 12.25 27.8387 12.5928 27.2965 13.117C26.755 13.642 26.4235 14.3095 26.1955 14.992C25.738 16.3548 25.7117 17.7962 25.7732 18.625C25.9315 20.7318 26.5232 22.9375 26.5232 22.9375L26.6875 23.5H32.992L33.2035 23.0312C33.2035 23.0312 33.9647 21.265 34 19.5153C34.03 18.01 33.73 16.2962 33.0392 14.875C32.3477 13.4538 31.1462 12.25 29.5 12.25ZM20.5 13.75C21.0272 13.75 21.3467 13.9022 21.6482 14.1955C21.9505 14.488 22.2197 14.9537 22.3982 15.484C22.753 16.5452 22.7965 17.8953 22.75 18.5312C22.627 20.1633 22.237 21.5282 22.117 22H18.04C17.8585 21.487 17.521 20.488 17.5007 19.492C17.4745 18.2208 17.767 16.6712 18.3212 15.5312C18.874 14.3913 19.5775 13.75 20.5 13.75ZM29.5 13.75C30.4225 13.75 31.126 14.3913 31.6795 15.5312C32.2337 16.6712 32.5232 18.2208 32.5 19.492C32.4797 20.488 32.1422 21.487 31.9607 22H27.883C27.763 21.5282 27.373 20.1625 27.25 18.5312C27.2027 17.8953 27.247 16.5452 27.6017 15.484C27.7802 14.9537 28.0495 14.488 28.3517 14.1955C28.6525 13.903 28.9727 13.75 29.5 13.75ZM16.75 25.75V26.5C16.741 27.5342 16.8407 28.741 17.3597 29.8045C17.8765 30.868 18.9677 31.75 20.5 31.75C22.1965 31.75 23.485 30.0888 23.5 28C23.503 27.5163 23.4827 26.9485 23.3125 26.3125L23.1715 25.75H16.75ZM26.8285 25.75L26.6875 26.3125C26.5172 26.9485 26.497 27.5163 26.5 28C26.515 30.0888 27.8035 31.75 29.5 31.75C31.0322 31.75 32.122 30.868 32.641 29.8045C33.1585 28.741 33.259 27.5342 33.25 26.5V25.75H26.8285ZM18.3662 27.25H21.9287C21.955 27.496 22.0022 27.748 21.9992 28C21.9872 29.5173 21.1967 30.25 20.4992 30.25C19.465 30.25 19.0367 29.8488 18.6947 29.1483C18.4487 28.6473 18.4195 27.9265 18.3662 27.25ZM28.0697 27.25H31.6322C31.5797 27.9265 31.5497 28.6473 31.3037 29.1483C30.9625 29.8488 30.535 30.25 29.5 30.25C28.8025 30.25 28.012 29.5173 28 28C27.997 27.748 28.0442 27.496 28.0705 27.25H28.0697Z" fill="#AAC938"/>
</g>
<defs>
<filter id="filter0_d" x="0" y="0" width="54" height="54" filterUnits="userSpaceOnUse" color-interpolation-filters="sRGB">
<feFlood flood-opacity="0" result="BackgroundImageFix"/>
<feColorMatrix in="SourceAlpha" type="matrix" values="0 0 0 0 0 0 0 0 0 0 0 0 0 0 0 0 0 0 127 0" result="hardAlpha"/>
<feOffset dx="2" dy="5"/>
<feGaussianBlur stdDeviation="5"/>
<feComposite in2="hardAlpha" operator="out"/>
<feColorMatrix type="matrix" values="0 0 0 0 0.179167 0 0 0 0 0.179167 0 0 0 0 0.179167 0 0 0 0.15 0"/>
<feBlend mode="normal" in2="BackgroundImageFix" result="effect1_dropShadow"/>
<feBlend mode="normal" in="SourceGraphic" in2="effect1_dropShadow" result="shape"/>
</filter>
</defs>
</svg>
