<svg width="30" height="30" viewBox="0 0 30 30" fill="none" xmlns="http://www.w3.org/2000/svg">
<path d="M11.7188 25.3125C11.7188 25.776 11.5813 26.2292 11.3238 26.6146C11.0662 27 10.7002 27.3004 10.2719 27.4778C9.84365 27.6552 9.3724 27.7016 8.91776 27.6112C8.46311 27.5208 8.0455 27.2976 7.71772 26.9698C7.38994 26.642 7.16672 26.2244 7.07628 25.7697C6.98585 25.3151 7.03226 24.8438 7.20966 24.4156C7.38705 23.9873 7.68745 23.6213 8.07288 23.3637C8.45831 23.1062 8.91145 22.9688 9.375 22.9688C9.9966 22.9688 10.5927 23.2157 11.0323 23.6552C11.4718 24.0948 11.7188 24.6909 11.7188 25.3125ZM21.5625 22.9688C21.099 22.9688 20.6458 23.1062 20.2604 23.3637C19.875 23.6213 19.5746 23.9873 19.3972 24.4156C19.2198 24.8438 19.1734 25.3151 19.2638 25.7697C19.3542 26.2244 19.5774 26.642 19.9052 26.9698C20.233 27.2976 20.6506 27.5208 21.1053 27.6112C21.5599 27.7016 22.0312 27.6552 22.4594 27.4778C22.8877 27.3004 23.2537 27 23.5113 26.6146C23.7688 26.2292 23.9062 25.776 23.9062 25.3125C23.9062 24.6909 23.6593 24.0948 23.2198 23.6552C22.7802 23.2157 22.1841 22.9688 21.5625 22.9688V22.9688ZM27.3342 8.82375L24.5086 18.7139C24.3107 19.3984 23.8962 20.0002 23.3274 20.4293C22.7586 20.8583 22.066 21.0915 21.3536 21.0938H9.58394C8.87147 21.0915 8.17893 20.8583 7.61012 20.4293C7.0413 20.0003 6.62686 19.3984 6.42891 18.714L3.61102 8.85152C3.60562 8.83359 3.60047 8.81578 3.59566 8.79762L2.55539 5.15625H1.40625C1.03329 5.15625 0.675604 5.00809 0.411881 4.74437C0.148158 4.48065 0 4.12296 0 3.75C0 3.37704 0.148158 3.01935 0.411881 2.75563C0.675604 2.49191 1.03329 2.34375 1.40625 2.34375H2.90883C3.41772 2.3454 3.91237 2.51193 4.31865 2.81838C4.72493 3.12483 5.02095 3.5547 5.16234 4.04355L6.01617 7.03125H25.9822C26.1999 7.03126 26.4146 7.08179 26.6094 7.17886C26.8042 7.27593 26.9738 7.41689 27.1048 7.59065C27.2359 7.76441 27.3249 7.96622 27.3647 8.1802C27.4045 8.39417 27.3941 8.61447 27.3343 8.82375H27.3342ZM24.1179 9.84375H6.81961L9.13324 17.9413C9.16153 18.0391 9.22074 18.125 9.30199 18.1863C9.38325 18.2476 9.48217 18.2809 9.58394 18.2812H21.3536C21.4553 18.2809 21.5543 18.2476 21.6355 18.1863C21.7168 18.1249 21.776 18.039 21.8043 17.9412L24.1179 9.84375Z" fill="#BDBDBD"/>
</svg>
