<svg width="24" height="24" viewBox="0 0 24 24" fill="none" xmlns="http://www.w3.org/2000/svg">
<rect x="0.5" y="0.5" width="23" height="23" rx="6.5" stroke="white"/>
<path d="M10.6875 14.1875V15.2812C10.6875 15.5713 10.8027 15.8495 11.0079 16.0546C11.213 16.2598 11.4912 16.375 11.7812 16.375H16.1562C16.4463 16.375 16.7245 16.2598 16.9296 16.0546C17.1348 15.8495 17.25 15.5713 17.25 15.2812V8.71875C17.25 8.42867 17.1348 8.15047 16.9296 7.94535C16.7245 7.74023 16.4463 7.625 16.1562 7.625H12C11.396 7.625 10.6875 8.11473 10.6875 8.71875V9.8125M8.9375 14.1875L6.75 12L8.9375 9.8125M14.1875 12H7.1875" stroke="white" stroke-linecap="round" stroke-linejoin="round"/>
</svg>
