<svg width="24" height="24" viewBox="0 0 24 24" fill="none" xmlns="http://www.w3.org/2000/svg">
<path d="M17.0354 6.98995C16.818 7.20558 16.5241 7.32656 16.2179 7.32656C15.9117 7.32656 15.6179 7.20558 15.4004 6.98995C15.2933 6.88382 15.2083 6.75754 15.1503 6.61838C15.0923 6.47923 15.0625 6.32996 15.0625 6.1792C15.0625 6.02844 15.0923 5.87918 15.1503 5.74002C15.2083 5.60087 15.2933 5.47458 15.4004 5.36845C15.6179 5.15282 15.9117 5.03184 16.2179 5.03184C16.5241 5.03184 16.818 5.15282 17.0354 5.36845C17.4854 5.81695 17.4854 6.54295 17.0354 6.98995ZM3.80391 13.74C3.52354 13.4621 3.30099 13.1315 3.14911 12.7672C2.99723 12.4029 2.91904 12.0121 2.91904 11.6175C2.91904 11.2228 2.99723 10.832 3.14911 10.4677C3.30099 10.1034 3.52354 9.77276 3.80391 9.49495L10.9439 2.39995C11.5086 1.8397 12.271 1.52399 13.0664 1.52095L17.9624 1.49995C18.3605 1.49717 18.7552 1.57339 19.1237 1.72418C19.4922 1.87498 19.8271 2.09737 20.109 2.37847C20.391 2.65957 20.6143 2.9938 20.7662 3.36182C20.9181 3.72984 20.9955 4.12433 20.9939 4.52245L20.9579 9.58195C20.9514 10.3713 20.6333 11.1261 20.0729 11.682L13.0379 18.672C12.47 19.2346 11.7028 19.5502 10.9034 19.5502C10.104 19.5502 9.33686 19.2346 8.76891 18.672L3.80391 13.74ZM4.87191 10.5555C4.73173 10.6944 4.62045 10.8597 4.54451 11.0418C4.46857 11.224 4.42947 11.4194 4.42947 11.6167C4.42947 11.814 4.46857 12.0094 4.54451 12.1916C4.62045 12.3737 4.73173 12.539 4.87191 12.678L9.83691 17.6129C10.4264 18.198 11.3819 18.198 11.9714 17.6129L19.0064 10.6215C19.2861 10.3433 19.4446 9.96592 19.4474 9.57145L19.4849 4.51195C19.4859 4.31273 19.4473 4.1153 19.3714 3.93111C19.2955 3.74692 19.1838 3.57964 19.0427 3.43898C18.9016 3.29832 18.734 3.18708 18.5496 3.11171C18.3652 3.03635 18.1676 2.99836 17.9684 2.99995L13.0724 3.02095C12.6744 3.02227 12.2929 3.18015 12.0104 3.46045L4.87041 10.5555H4.87191ZM2.99691 14.625C2.79541 15.1642 2.75332 15.7501 2.87566 16.3126C2.99801 16.8751 3.27963 17.3906 3.68691 17.7975L6.63291 20.7435C7.19007 21.3006 7.85151 21.7426 8.57949 22.0442C9.30746 22.3457 10.0877 22.5009 10.8757 22.5009C11.6636 22.5009 12.4439 22.3457 13.1718 22.0442C13.8998 21.7426 14.5613 21.3006 15.1184 20.7435L20.3414 15.5205C20.7635 15.0989 21.0009 14.527 21.0014 13.9305V12.7605L15.1184 18.6435C15.0149 18.747 14.9084 18.846 14.8004 18.939L14.0579 19.683C13.64 20.1009 13.1439 20.4324 12.5979 20.6586C12.0519 20.8848 11.4667 21.0012 10.8757 21.0012C10.2846 21.0012 9.69942 20.8848 9.15341 20.6586C8.60739 20.4324 8.11128 20.1009 7.69341 19.683L6.94491 18.9345C6.83756 18.8411 6.7335 18.744 6.63291 18.6435L3.68691 15.6975C3.38245 15.3937 3.14709 15.0279 2.99691 14.625Z" fill="#4F4F4F"/>
</svg>
