<svg width="50" height="50" viewBox="0 0 50 50" fill="none" xmlns="http://www.w3.org/2000/svg">
<g filter="url(#filter0_d)">
<rect x="6.5" y="3.5" width="33" height="33" rx="9.5" fill="#AAC938" stroke="#91B800"/>
<g filter="url(#filter1_d)">
<path d="M17.2991 12.3967C17.4055 12.2723 17.5376 12.1724 17.6863 12.1039C17.835 12.0354 17.9967 12 18.1604 12H27.8391C28.0028 12 28.1646 12.0354 28.3133 12.1039C28.4619 12.1724 28.594 12.2723 28.7004 12.3967L31.6573 15.8465C31.9213 16.1546 32.0664 16.5469 32.0664 16.9527V17.2417C32.0665 17.8026 31.8913 18.3496 31.5653 18.8061C31.2393 19.2627 30.7788 19.6059 30.2482 19.788C29.7176 19.97 29.1434 19.9817 28.6058 19.8214C28.0682 19.6612 27.5941 19.3369 27.2498 18.8941C26.9983 19.2179 26.6761 19.48 26.3078 19.6601C25.9395 19.8402 25.5348 19.9337 25.1248 19.9333C24.7147 19.9338 24.31 19.8404 23.9417 19.6602C23.5734 19.4801 23.2512 19.218 22.9998 18.8941C22.7484 19.218 22.4262 19.4801 22.0578 19.6602C21.6895 19.8404 21.2848 19.9338 20.8748 19.9333C20.4647 19.9338 20.06 19.8404 19.6917 19.6602C19.3234 19.4801 19.0012 19.218 18.7498 18.8941C18.4055 19.3369 17.9314 19.6612 17.3938 19.8214C16.8562 19.9817 16.282 19.97 15.7513 19.788C15.2207 19.6059 14.7602 19.2627 14.4342 18.8061C14.1083 18.3496 13.933 17.8026 13.9331 17.2417V16.9527C13.9331 16.5469 14.0782 16.1546 14.3422 15.8465L17.3002 12.3955L17.2991 12.3967ZM19.3164 17.2417C19.3164 17.655 19.4806 18.0513 19.7729 18.3436C20.0651 18.6358 20.4615 18.8 20.8748 18.8C21.2881 18.8 21.6844 18.6358 21.9767 18.3436C22.2689 18.0513 22.4331 17.655 22.4331 17.2417C22.4331 17.0914 22.4928 16.9472 22.5991 16.841C22.7053 16.7347 22.8495 16.675 22.9998 16.675C23.1501 16.675 23.2942 16.7347 23.4005 16.841C23.5067 16.9472 23.5664 17.0914 23.5664 17.2417C23.5664 17.655 23.7306 18.0513 24.0229 18.3436C24.3151 18.6358 24.7115 18.8 25.1248 18.8C25.5381 18.8 25.9344 18.6358 26.2267 18.3436C26.5189 18.0513 26.6831 17.655 26.6831 17.2417C26.6831 17.0914 26.7428 16.9472 26.8491 16.841C26.9553 16.7347 27.0995 16.675 27.2498 16.675C27.4001 16.675 27.5442 16.7347 27.6505 16.841C27.7567 16.9472 27.8164 17.0914 27.8164 17.2417C27.8164 17.655 27.9806 18.0513 28.2729 18.3436C28.5651 18.6358 28.9615 18.8 29.3748 18.8C29.7881 18.8 30.1844 18.6358 30.4767 18.3436C30.7689 18.0513 30.9331 17.655 30.9331 17.2417V16.9527C30.9331 16.8176 30.8849 16.687 30.7971 16.5843L27.8391 13.1333H18.1604L15.2024 16.5843C15.1147 16.687 15.0664 16.8176 15.0664 16.9527V17.2417C15.0664 17.655 15.2306 18.0513 15.5229 18.3436C15.8151 18.6358 16.2115 18.8 16.6248 18.8C17.0381 18.8 17.4344 18.6358 17.7267 18.3436C18.0189 18.0513 18.1831 17.655 18.1831 17.2417C18.1831 17.0914 18.2428 16.9472 18.3491 16.841C18.4553 16.7347 18.5995 16.675 18.7498 16.675C18.9001 16.675 19.0442 16.7347 19.1505 16.841C19.2567 16.9472 19.3164 17.0914 19.3164 17.2417ZM15.6331 20.5C15.7834 20.5 15.9275 20.5597 16.0338 20.666C16.1401 20.7722 16.1998 20.9164 16.1998 21.0667V27.8667H29.7998V21.0667C29.7998 20.9164 29.8595 20.7722 29.9657 20.666C30.072 20.5597 30.2162 20.5 30.3664 20.5C30.5167 20.5 30.6609 20.5597 30.7671 20.666C30.8734 20.7722 30.9331 20.9164 30.9331 21.0667V27.8667H31.4998C31.6501 27.8667 31.7942 27.9264 31.9005 28.0326C32.0067 28.1389 32.0664 28.283 32.0664 28.4333C32.0664 28.5836 32.0067 28.7278 31.9005 28.834C31.7942 28.9403 31.6501 29 31.4998 29H14.4998C14.3495 29 14.2053 28.9403 14.0991 28.834C13.9928 28.7278 13.9331 28.5836 13.9331 28.4333C13.9331 28.283 13.9928 28.1389 14.0991 28.0326C14.2053 27.9264 14.3495 27.8667 14.4998 27.8667H15.0664V21.0667C15.0664 20.9164 15.1261 20.7722 15.2324 20.666C15.3387 20.5597 15.4828 20.5 15.6331 20.5ZM17.8998 21.0667C18.0501 21.0667 18.1942 21.1264 18.3005 21.2326C18.4067 21.3389 18.4664 21.483 18.4664 21.6333V25.6H27.5331V21.6333C27.5331 21.483 27.5928 21.3389 27.6991 21.2326C27.8053 21.1264 27.9495 21.0667 28.0998 21.0667C28.2501 21.0667 28.3942 21.1264 28.5005 21.2326C28.6067 21.3389 28.6664 21.483 28.6664 21.6333V25.6C28.6664 25.9006 28.547 26.1888 28.3345 26.4014C28.122 26.6139 27.8337 26.7333 27.5331 26.7333H18.4664C18.1659 26.7333 17.8776 26.6139 17.6651 26.4014C17.4525 26.1888 17.3331 25.9006 17.3331 25.6V21.6333C17.3331 21.483 17.3928 21.3389 17.4991 21.2326C17.6053 21.1264 17.7495 21.0667 17.8998 21.0667Z" fill="white"/>
</g>
</g>
<defs>
<filter id="filter0_d" x="0" y="0" width="50" height="50" filterUnits="userSpaceOnUse" color-interpolation-filters="sRGB">
<feFlood flood-opacity="0" result="BackgroundImageFix"/>
<feColorMatrix in="SourceAlpha" type="matrix" values="0 0 0 0 0 0 0 0 0 0 0 0 0 0 0 0 0 0 127 0" result="hardAlpha"/>
<feOffset dx="2" dy="5"/>
<feGaussianBlur stdDeviation="4"/>
<feComposite in2="hardAlpha" operator="out"/>
<feColorMatrix type="matrix" values="0 0 0 0 0.666667 0 0 0 0 0.788235 0 0 0 0 0.219608 0 0 0 0.35 0"/>
<feBlend mode="normal" in2="BackgroundImageFix" result="effect1_dropShadow"/>
<feBlend mode="normal" in="SourceGraphic" in2="effect1_dropShadow" result="shape"/>
</filter>
<filter id="filter1_d" x="7" y="8" width="32" height="32" filterUnits="userSpaceOnUse" color-interpolation-filters="sRGB">
<feFlood flood-opacity="0" result="BackgroundImageFix"/>
<feColorMatrix in="SourceAlpha" type="matrix" values="0 0 0 0 0 0 0 0 0 0 0 0 0 0 0 0 0 0 127 0" result="hardAlpha"/>
<feOffset dy="4"/>
<feGaussianBlur stdDeviation="2"/>
<feComposite in2="hardAlpha" operator="out"/>
<feColorMatrix type="matrix" values="0 0 0 0 0 0 0 0 0 0 0 0 0 0 0 0 0 0 0.25 0"/>
<feBlend mode="normal" in2="BackgroundImageFix" result="effect1_dropShadow"/>
<feBlend mode="normal" in="SourceGraphic" in2="effect1_dropShadow" result="shape"/>
</filter>
</defs>
</svg>
