<svg width="24" height="24" viewBox="0 0 24 24" fill="none" xmlns="http://www.w3.org/2000/svg">
<rect x="0.5" y="0.5" width="23" height="23" rx="6.5" stroke="white"/>
<g clip-path="url(#clip0)">
<path d="M6.83556 15.3L6.37782 17.4981L6.25246 18.1H6.86732H17.1335H17.7484L17.623 17.4981L17.1653 15.3H17.24L18.083 17.8295L18.083 17.8295C18.1632 18.0701 18.117 18.2291 18.0532 18.3175C17.9896 18.406 17.8537 18.5 17.6004 18.5H6.40042C6.14719 18.5 6.01123 18.406 5.94744 18.3174C5.88359 18.2288 5.83734 18.0698 5.91722 17.8293C5.91724 17.8293 5.91727 17.8292 5.91729 17.8291L6.76074 15.3H6.83556ZM12.1626 14.5569C12.1048 14.6265 12.0505 14.6908 12.0004 14.7493C11.9503 14.6908 11.896 14.6265 11.8382 14.5569C11.5188 14.1722 11.0932 13.6258 10.6683 12.9789C9.80586 11.6658 9.00041 10.0191 9.00041 8.5C9.00041 7.70435 9.31649 6.94129 9.87909 6.37868C10.4417 5.81607 11.2048 5.5 12.0004 5.5C12.7961 5.5 13.5591 5.81607 14.1217 6.37868C14.6843 6.94129 15.0004 7.70435 15.0004 8.5C15.0004 10.0191 14.195 11.6658 13.3325 12.9789C12.9077 13.6258 12.482 14.1722 12.1626 14.5569ZM13.6902 6.85261L13.3366 7.20617L13.6902 6.85261C13.242 6.40447 12.6342 6.1527 12.0004 6.1527C10.68 6.1527 9.61041 7.22204 9.61041 8.542C9.61041 9.17587 9.86222 9.78377 10.3104 10.232C10.7586 10.6802 11.3665 10.932 12.0004 10.932C12.6342 10.932 13.242 10.6802 13.6902 10.2321C14.1383 9.78394 14.3901 9.17612 14.3901 8.54235C14.3901 7.90858 14.1383 7.30076 13.6902 6.85261Z" stroke="white"/>
</g>
<defs>
<clipPath id="clip0">
<rect width="14" height="14" fill="white" transform="translate(5 5)"/>
</clipPath>
</defs>
</svg>
